<?xml version="1.0" standalone="no"?>
<!DOCTYPE svg PUBLIC "-//W3C//DTD SVG 20010904//EN"
 "http://www.w3.org/TR/2001/REC-SVG-20010904/DTD/svg10.dtd">
<svg version="1.0" xmlns="http://www.w3.org/2000/svg"
 width="225.000000pt" height="225.000000pt" viewBox="0 0 225.000000 225.000000"
 preserveAspectRatio="xMidYMid meet">
<metadata>
Created by potrace 1.10, written by Peter Selinger 2001-2011
</metadata>
<g transform="translate(0.000000,225.000000) scale(0.100000,-0.100000)"
fill="#000000" stroke="none">
<path d="M54 2238 c-29 -14 -44 -49 -44 -103 l0 -45 425 -2 c306 -2 426 0 429
8 2 6 37 25 78 42 40 17 66 32 58 32 -8 0 -44 -14 -79 -30 l-65 -31 -292 -2
-292 -2 24 28 c13 16 24 32 24 36 0 20 -44 61 -65 61 -22 0 -65 -41 -65 -62 0
-5 12 -22 28 -37 l27 -28 -105 1 -105 1 -3 43 c-3 37 1 46 30 72 33 30 30 37
-8 18z m242 -43 c15 -23 15 -27 0 -50 -10 -15 -26 -25 -41 -25 -15 0 -31 10
-41 25 -15 23 -15 27 0 50 10 15 26 25 41 25 15 0 31 -10 41 -25z"/>
<path d="M270 2190 c0 -5 5 -10 11 -10 5 0 7 5 4 10 -3 6 -8 10 -11 10 -2 0
-4 -4 -4 -10z"/>
<path d="M1478 2221 c26 -24 32 -38 32 -69 0 -55 -20 -60 -95 -22 -33 17 -85
37 -115 45 -57 15 -216 19 -260 6 -14 -4 22 -5 78 -3 65 3 125 0 160 -8 75
-17 170 -59 155 -68 -7 -4 12 -9 42 -10 l55 -2 0 44 c0 56 -15 91 -47 105 -38
18 -40 13 -5 -18z"/>
<path d="M90 2200 c-11 -11 -20 -24 -20 -30 0 -12 37 -50 48 -50 18 0 52 33
52 50 0 17 -34 50 -52 50 -5 0 -17 -9 -28 -20z m40 0 c0 -5 7 -10 16 -10 10 0
14 -7 12 -22 -2 -13 -7 -21 -12 -20 -5 2 -12 -2 -16 -8 -6 -9 -14 -6 -29 9
-20 20 -20 22 -3 40 19 22 32 26 32 11z"/>
<path d="M1028 2105 c-48 -7 -100 -20 -117 -28 -42 -21 -120 -89 -121 -105 0
-7 21 4 48 26 26 22 68 51 93 66 45 25 49 26 230 26 l184 0 50 -29 c111 -63
221 -211 240 -319 6 -35 10 -41 38 -45 18 -2 33 -4 34 -3 7 6 -25 114 -52 173
-24 53 -53 93 -104 145 -39 39 -74 69 -78 65 -4 -4 23 -38 60 -75 36 -37 71
-78 76 -92 6 -14 15 -32 20 -40 5 -8 14 -28 21 -45 7 -16 16 -38 22 -48 5 -10
6 -22 3 -27 -3 -5 -1 -11 5 -15 15 -9 12 -25 -5 -25 -8 0 -15 8 -15 18 -1 66
-78 199 -160 275 -80 74 -116 90 -241 106 -100 13 -116 13 -231 -4z m149 -1
c-3 -3 -12 -4 -19 -1 -8 3 -5 6 6 6 11 1 17 -2 13 -5z"/>
<path d="M12 1697 c-2 -398 1 -424 43 -441 9 -3 132 -5 273 -4 l257 2 -261 6
c-200 4 -265 8 -277 19 -15 12 -17 46 -18 295 -1 154 -5 331 -9 391 -4 75 -7
-9 -8 -268z"/>
<path d="M776 2024 c-42 -41 -73 -84 -63 -84 3 0 34 29 71 65 36 36 60 65 52
65 -8 0 -35 -21 -60 -46z"/>
<path d="M1074 1980 c-22 -5 -58 -16 -79 -24 -24 -11 -68 -16 -126 -16 -80 0
-89 -2 -104 -22 l-16 -23 66 -5 66 -5 -33 -32 c-27 -26 -42 -32 -87 -35 -46
-3 -55 -6 -62 -26 -8 -22 -7 -23 39 -20 31 2 46 7 45 16 -2 6 7 12 18 12 27 0
103 80 89 94 -5 5 -29 13 -52 17 -40 6 -37 7 27 9 39 1 76 2 84 1 7 -2 32 5
55 14 68 28 149 37 222 25 66 -11 153 -48 186 -79 57 -53 80 -80 101 -121 53
-97 43 -114 -32 -55 -24 19 -49 35 -56 35 -7 0 -36 -16 -65 -35 -93 -63 -185
-78 -293 -50 -55 14 -128 53 -142 75 -10 16 -36 12 -69 -14 -53 -40 -97 -59
-109 -47 -8 8 -8 11 1 11 10 0 52 68 52 85 0 17 -19 0 -33 -31 -16 -33 -21
-36 -52 -32 -23 3 -35 0 -35 -8 0 -6 -16 -14 -35 -16 -27 -3 -35 0 -35 12 0
13 -29 15 -225 15 l-225 0 0 -28 0 -28 207 4 c115 3 231 7 258 11 l51 7 -3
-180 c-2 -141 -5 -185 -17 -203 -27 -42 -6 -108 42 -130 30 -15 61 -16 80 -5
8 6 12 2 12 -11 0 -17 -6 -19 -42 -16 -95 8 -115 28 -120 117 -3 51 -5 57 -39
77 -19 12 -46 39 -59 59 -13 20 -31 42 -39 49 -13 10 -13 16 -3 32 15 24 16
62 1 77 -7 7 4 24 38 56 26 26 43 47 36 47 -6 0 -23 -14 -36 -30 l-26 -30
-170 2 -171 3 0 -27 0 -28 163 0 163 0 -4 -32 -4 -33 -159 3 -159 3 0 -31 0
-30 169 0 c159 0 170 -1 176 -19 6 -20 79 -91 93 -91 4 0 6 -19 4 -42 -3 -51
20 -102 61 -132 22 -16 46 -21 115 -24 100 -4 127 1 136 24 13 34 -12 44 -114
44 -80 0 -100 3 -112 18 -18 20 -31 92 -17 92 5 0 9 29 9 65 0 58 2 65 20 65
16 0 20 7 20 31 0 26 -3 31 -20 26 -17 -4 -20 0 -20 29 0 29 3 34 24 34 18 0
26 -6 29 -22 2 -13 2 0 -1 28 -2 32 0 54 7 58 6 4 11 12 11 18 0 7 -9 2 -20
-10 -32 -34 -50 -28 -50 14 0 36 0 36 38 32 40 -5 91 15 149 59 l33 24 46 -36
c118 -89 305 -87 433 5 l41 30 43 -31 c44 -32 107 -62 115 -55 2 3 -3 27 -12
54 -66 199 -284 323 -492 282z m-307 -186 c-3 -3 -12 -4 -19 -1 -8 3 -5 6 6 6
11 1 17 -2 13 -5z m-210 -117 c3 -4 -59 -6 -138 -5 l-144 2 115 5 c136 7 158
7 167 -2z m33 3 c0 -5 -5 -10 -11 -10 -5 0 -7 5 -4 10 3 6 8 10 11 10 2 0 4
-4 4 -10z m137 -6 c-3 -3 -12 -4 -19 -1 -8 3 -5 6 6 6 11 1 17 -2 13 -5z
m-270 -230 c-3 -3 -12 -4 -19 -1 -8 3 -5 6 6 6 11 1 17 -2 13 -5z m433 -309
c0 -16 -28 -19 -67 -9 -38 10 -26 24 22 24 33 0 45 -4 45 -15z"/>
<path d="M160 1915 l0 -25 254 0 254 0 16 25 16 25 -270 0 -270 0 0 -25z m433
-2 c-29 -2 -77 -2 -105 0 -29 2 -6 3 52 3 58 0 81 -1 53 -3z"/>
<path d="M1523 1870 c0 -30 2 -43 4 -27 2 15 2 39 0 55 -2 15 -4 2 -4 -28z"/>
<path d="M711 1873 c-12 -27 -9 -39 7 -29 13 8 22 45 13 51 -5 2 -13 -7 -20
-22z"/>
<path d="M656 1854 c-4 -9 -4 -19 -2 -21 8 -8 26 8 26 23 0 19 -16 18 -24 -2z"/>
<path d="M398 1822 l-238 -2 0 -25 0 -25 234 0 234 0 5 28 c3 15 5 27 4 27 -1
0 -109 -1 -239 -3z m55 -29 c-29 -2 -78 -2 -110 0 -32 2 -8 3 52 3 61 0 87 -1
58 -3z m84 1 c-3 -3 -12 -4 -19 -1 -8 3 -5 6 6 6 11 1 17 -2 13 -5z m40 0 c-3
-3 -12 -4 -19 -1 -8 3 -5 6 6 6 11 1 17 -2 13 -5z"/>
<path d="M626 1751 c-4 -7 -5 -15 -2 -18 9 -9 19 4 14 18 -4 11 -6 11 -12 0z"/>
<path d="M659 1758 c0 -2 -2 -15 -3 -30 -1 -21 1 -24 11 -16 15 12 17 48 3 48
-5 0 -10 -1 -11 -2z"/>
<path d="M1640 1483 l0 -205 33 7 c126 28 199 159 152 273 -27 64 -79 106
-152 123 l-33 7 0 -205z m63 176 c37 -19 88 -72 103 -108 34 -80 -4 -189 -79
-224 -56 -27 -67 -23 -68 26 0 23 -1 104 -2 180 -2 146 -1 150 46 126z"/>
<path d="M1576 1461 c4 -93 3 -178 -1 -188 -4 -10 -9 -23 -11 -30 -5 -27 -50
-77 -158 -176 -129 -119 -157 -136 -232 -144 -69 -7 -134 23 -224 107 -36 33
-69 60 -75 60 -17 -1 141 -146 182 -166 52 -26 154 -25 206 2 20 11 93 71 162
133 95 87 131 127 151 168 26 53 26 53 19 223 -4 94 -11 173 -16 176 -5 3 -6
-67 -3 -165z"/>
<path d="M936 1474 c-32 -31 -14 -84 29 -84 29 0 45 19 45 52 0 42 -45 62 -74
32z m54 -19 c18 -22 5 -45 -24 -43 -29 3 -41 24 -25 44 15 18 33 18 49 -1z"/>
<path d="M1320 1470 c-24 -24 -24 -29 -4 -58 27 -39 84 -23 84 23 0 23 -28 55
-48 55 -7 0 -21 -9 -32 -20z m58 -29 c4 -29 -15 -43 -40 -30 -21 11 -23 30 -6
47 19 19 43 10 46 -17z"/>
<path d="M721 1346 c-1 -70 15 -129 42 -153 20 -17 20 -17 13 2 -5 11 -11 29
-14 40 -3 11 -10 23 -15 27 -6 3 -13 37 -17 75 l-7 68 -2 -59z"/>
<path d="M698 1253 c7 -3 16 -2 19 1 4 3 -2 6 -13 5 -11 0 -14 -3 -6 -6z"/>
<path d="M1012 1218 c-28 -28 -5 -97 48 -142 27 -22 41 -26 98 -26 55 0 71 4
92 23 46 40 70 79 69 111 l0 31 -15 -40 c-24 -67 -86 -115 -146 -115 -42 0
-103 38 -126 79 -40 71 -40 71 123 71 90 0 145 4 145 10 0 15 -273 13 -288 -2z"/>
<path d="M1783 1050 c-5 -18 -14 -20 -112 -20 -71 0 -113 -4 -125 -13 -15 -11
-17 -45 -16 -426 0 -287 4 -419 11 -428 9 -10 79 -13 340 -13 327 0 328 0 343
22 14 19 16 76 16 418 0 342 -2 399 -16 418 -14 21 -23 22 -128 22 -105 0
-114 1 -119 20 -5 18 -14 20 -97 20 -83 0 -92 -2 -97 -20z m185 -18 c26 -26
27 -39 6 -80 -15 -32 -16 -32 -94 -32 l-79 0 -17 36 c-13 28 -14 40 -5 60 14
31 37 40 109 39 46 0 62 -5 80 -23z m-208 -37 c0 -12 -15 -15 -79 -15 -60 0
-82 -4 -92 -16 -11 -13 -13 -91 -14 -376 0 -338 1 -360 19 -376 16 -15 47 -17
294 -14 152 1 280 6 285 11 13 13 10 740 -4 757 -8 10 -34 14 -90 14 -71 0
-100 10 -66 23 21 8 171 7 184 -1 10 -6 13 -103 13 -412 1 -222 -3 -407 -8
-412 -4 -4 -152 -7 -328 -6 l-319 3 -3 409 c-2 321 0 411 10 418 7 4 55 8 106
8 75 0 92 -3 92 -15z m20 -60 l0 -25 104 0 103 0 -5 25 -4 25 93 0 94 0 0
-370 0 -370 -282 0 -283 0 0 370 0 370 90 0 c89 0 90 0 90 -25z"/>
<path d="M1670 805 l0 -25 210 0 210 0 0 25 0 25 -210 0 -210 0 0 -25z m410 6
c0 -18 -37 -22 -212 -21 -163 2 -199 6 -181 24 10 10 393 7 393 -3z"/>
<path d="M1670 685 l0 -25 210 0 210 0 0 25 0 25 -210 0 -210 0 0 -25z m410 5
c0 -6 -73 -10 -200 -10 -127 0 -200 4 -200 10 0 6 73 10 200 10 127 0 200 -4
200 -10z"/>
<path d="M1670 568 l0 -28 213 0 214 0 -4 28 -5 27 -209 0 -209 0 0 -27z m330
-1 c36 -2 -22 -4 -128 -5 -106 -1 -191 1 -189 6 5 6 157 6 317 -1z"/>
<path d="M1670 449 l0 -29 210 0 210 0 0 28 0 28 -210 1 -210 1 0 -29z m348
-6 c-27 -2 -69 -2 -95 0 -27 2 -5 3 47 3 52 0 74 -1 48 -3z"/>
<path d="M1670 330 l0 -30 105 0 105 0 0 30 0 30 -105 0 -105 0 0 -30z m154 1
c-9 -9 -134 -7 -134 2 0 4 32 7 70 6 39 -1 68 -5 64 -8z"/>
<path d="M180 1039 c-165 -74 -214 -298 -94 -426 18 -19 32 -38 30 -42 -16
-26 -54 -142 -44 -134 131 100 133 100 158 91 37 -14 130 -3 177 21 52 26 98
72 126 125 33 62 31 174 -5 242 -49 94 -131 144 -238 144 -44 0 -80 -7 -110
-21z m234 -33 c74 -43 110 -102 122 -202 6 -53 -27 -143 -68 -184 -56 -56
-103 -73 -199 -72 -80 1 -87 -1 -119 -28 -19 -16 -35 -28 -37 -27 -1 2 4 21
12 42 13 38 12 42 -11 70 -13 17 -32 46 -40 65 -9 19 -20 43 -25 52 -12 24
-11 135 1 143 6 3 10 14 10 24 0 29 71 102 124 128 69 33 163 28 230 -11z"/>
<path d="M232 988 c-17 -13 -34 -31 -38 -40 -8 -25 5 -58 22 -58 8 0 14 -4 14
-10 0 -16 14 -12 38 11 15 13 29 18 42 14 29 -9 25 -18 -23 -58 -23 -19 -49
-46 -56 -61 -13 -23 -12 -28 4 -46 17 -19 17 -21 1 -39 -18 -20 -15 -51 6 -78
13 -16 50 -17 66 -1 15 15 16 85 1 90 -18 6 6 38 57 76 24 18 51 46 60 63 14
29 14 35 0 73 -20 52 -68 86 -122 86 -25 0 -51 -8 -72 -22z m128 -13 c63 -33
69 -100 13 -151 -21 -19 -47 -44 -59 -54 -12 -11 -33 -20 -47 -20 -24 0 -25 2
-16 28 5 16 30 43 54 60 45 32 56 57 33 80 -18 18 -55 14 -75 -7 -17 -18 -19
-18 -39 -2 -26 21 -21 37 20 62 37 23 77 24 116 4z m-54 -310 c0 -32 -2 -35
-28 -35 -25 0 -28 3 -28 35 0 32 3 35 28 35 24 0 27 -4 28 -35z"/>
<path d="M861 980 l-30 -25 44 -85 c24 -47 44 -82 44 -78 1 4 -16 42 -36 83
l-37 75 22 22 22 23 115 -117 c63 -65 115 -121 115 -127 0 -12 -79 -149 -89
-156 -4 -2 -19 18 -31 46 -13 28 -28 53 -32 55 -5 3 6 -24 24 -60 17 -36 35
-63 38 -61 3 2 30 43 59 90 l53 87 -125 127 -126 126 -30 -25z"/>
<path d="M1301 878 l-124 -126 59 -97 c32 -53 61 -90 63 -83 2 7 46 97 97 200
l93 186 -32 24 -32 23 -124 -127z m162 82 c7 -12 -13 -60 -77 -188 -47 -95
-90 -172 -95 -172 -5 0 -30 34 -55 76 l-46 76 115 114 c114 114 136 127 158
94z"/>
<path d="M910 763 l-63 -47 -86 -1 c-70 0 -94 -4 -131 -23 -92 -48 -140 -118
-147 -216 -21 -256 277 -397 458 -216 101 101 105 267 8 371 l-28 30 29 75
c15 41 27 74 26 74 -1 0 -31 -21 -66 -47z m15 -53 c-20 -56 -19 -60 13 -95 61
-68 79 -137 58 -219 -19 -73 -28 -87 -82 -134 -84 -75 -178 -88 -273 -40 -95
49 -141 124 -141 233 0 54 5 77 24 109 64 108 167 156 287 132 31 -7 41 -3 80
27 24 19 45 33 47 32 1 -1 -5 -21 -13 -45z"/>
<path d="M740 620 c-25 -6 -25 -7 -25 -115 l0 -110 35 0 35 0 3 106 c3 115 -3
131 -48 119z m40 -112 l0 -98 -30 0 -30 0 0 98 0 97 30 0 30 0 0 -97z"/>
<path d="M721 366 c-7 -8 -11 -30 -9 -48 3 -30 6 -33 38 -33 32 0 35 3 38 33
4 37 -12 62 -38 62 -10 0 -23 -6 -29 -14z m59 -41 c0 -32 -2 -35 -30 -35 -28
0 -30 3 -30 35 0 32 2 35 30 35 28 0 30 -3 30 -35z"/>
<path d="M1150 700 c0 -5 -14 -32 -30 -59 l-30 -49 34 -34 35 -35 34 35 35 34
-35 59 c-35 59 -43 68 -43 49z m35 -76 l19 -36 -23 -19 c-22 -18 -25 -18 -42
-3 -11 10 -19 23 -19 31 0 16 29 63 39 63 3 0 15 -16 26 -36z"/>
<path d="M1062 353 l-92 -158 95 -95 95 -95 95 95 94 95 -92 157 c-51 87 -94
158 -97 158 -3 0 -47 -71 -98 -157z m133 65 c16 -29 42 -73 59 -98 17 -25 40
-65 50 -88 l20 -43 -82 -82 -82 -82 -80 80 c-44 44 -80 86 -80 93 0 8 15 39
34 70 18 32 43 73 54 92 12 19 30 52 42 73 11 20 24 37 29 37 4 0 21 -24 36
-52z"/>
</g>
</svg>
