<?xml version="1.0" standalone="no"?>
<!DOCTYPE svg PUBLIC "-//W3C//DTD SVG 20010904//EN"
 "http://www.w3.org/TR/2001/REC-SVG-20010904/DTD/svg10.dtd">
<svg version="1.0" xmlns="http://www.w3.org/2000/svg"
 width="300.000000pt" height="172.000000pt" viewBox="0 0 300.000000 172.000000"
 preserveAspectRatio="xMidYMid meet">
<metadata>
Created by potrace 1.10, written by Peter Selinger 2001-2011
</metadata>
<g transform="translate(0.000000,172.000000) scale(0.100000,-0.100000)"
fill="#000000" stroke="none">
<path d="M1270 1366 c0 -8 5 -18 10 -21 6 -3 10 1 10 9 0 8 -4 18 -10 21 -5 3
-10 -1 -10 -9z"/>
<path d="M1597 1366 c-4 -10 -5 -21 -2 -24 9 -9 17 6 13 25 -3 17 -4 17 -11
-1z"/>
<path d="M1982 1340 c-7 -11 -10 -20 -7 -20 3 0 14 9 25 20 12 12 15 20 7 20
-7 0 -18 -9 -25 -20z"/>
<path d="M925 1320 c3 -5 11 -10 16 -10 6 0 7 5 4 10 -3 6 -11 10 -16 10 -6 0
-7 -4 -4 -10z"/>
<path d="M978 1259 c-17 -9 -18 -36 -18 -339 l0 -330 -217 -3 -218 -2 218 -3
c205 -2 217 -3 217 -21 0 -39 22 -44 210 -42 l180 2 0 -39 c0 -30 -7 -45 -30
-67 -22 -21 -30 -37 -28 -55 l3 -25 179 -3 c220 -3 239 5 171 72 -28 29 -35
43 -35 76 l0 40 173 0 c156 0 176 2 190 18 10 10 17 24 17 30 0 8 20 12 55 12
41 0 55 -4 55 -14 0 -8 -4 -18 -10 -21 -6 -3 -10 -15 -10 -25 0 -10 -9 -21
-20 -25 -17 -5 -19 -13 -14 -73 7 -89 8 -90 47 -97 38 -7 77 8 77 29 0 8 7 19
15 26 17 14 21 85 5 75 -5 -3 -10 4 -10 15 0 13 -8 24 -19 27 -19 5 -51 60
-44 78 2 6 67 10 170 10 l168 -1 -163 3 -163 3 6 33 c5 24 4 28 -4 17 -6 -8
-11 -23 -11 -32 0 -10 -4 -18 -10 -18 -24 0 -5 56 33 98 11 12 16 22 9 22 -16
0 -51 -54 -58 -89 -6 -30 -9 -31 -55 -31 l-49 0 0 324 c0 178 -3 331 -6 340
-5 14 -58 16 -498 16 -315 0 -497 -4 -508 -11z m996 -15 c3 -9 6 -148 6 -310
l0 -294 -505 0 -505 0 0 300 c0 274 1 300 18 309 11 7 190 11 498 11 430 0
483 -2 488 -16z m6 -648 c0 -69 22 -66 -518 -64 l-487 3 -3 48 -3 47 505 0
506 0 0 -34z m133 -85 c-13 -3 -8 -7 17 -16 l35 -12 -55 0 c-30 1 -47 3 -37 5
10 2 17 13 17 26 0 32 12 40 28 19 11 -15 11 -19 -5 -22z m-513 -34 c0 -35 6
-49 30 -72 17 -16 30 -32 30 -37 0 -12 -348 -10 -355 2 -4 6 7 23 24 39 25 23
31 37 31 70 l0 41 120 0 120 0 0 -43z m578 -47 c5 -22 6 -37 1 -34 -5 3 -9 11
-9 19 0 8 -5 17 -11 20 -7 5 -8 -7 -4 -38 6 -38 4 -47 -12 -55 -28 -15 -70 -3
-77 21 -3 12 -6 41 -6 65 l0 42 54 0 54 0 10 -40z m-785 -87 c-7 -2 -19 -2
-25 0 -7 3 -2 5 12 5 14 0 19 -2 13 -5z"/>
<path d="M1015 1207 c-3 -7 -4 -127 -3 -267 l3 -255 460 0 460 0 0 265 0 265
-458 3 c-364 2 -459 0 -462 -11z m915 -17 c0 -7 -158 -10 -455 -10 -297 0
-455 3 -455 10 0 7 158 10 455 10 297 0 455 -3 455 -10z m0 -254 c0 -225 -1
-234 -20 -239 -19 -5 -20 0 -20 136 0 117 3 144 17 159 10 12 12 18 4 18 -7 0
-10 4 -6 9 3 5 1 12 -5 16 -5 3 -10 17 -10 30 0 52 -5 55 -107 55 -88 0 -94 1
-82 17 12 15 12 16 -3 10 -9 -3 -19 -1 -22 6 -4 7 -4 2 -2 -10 l4 -23 -296 -2
-297 -3 0 -56 c0 -33 -6 -63 -14 -73 -12 -14 -11 -19 3 -34 13 -15 16 -41 16
-138 0 -118 0 -120 -23 -119 -47 2 -47 4 -47 246 l0 229 455 0 455 0 0 -234z
m-52 157 c3 -10 -80 -13 -392 -13 -347 0 -396 2 -396 15 0 13 48 15 392 13
302 -2 392 -6 396 -15z m2 -213 l0 -190 -25 0 c-25 0 -25 0 -25 95 l0 95 -345
0 -344 0 -7 -35 c-3 -20 -4 -63 -2 -95 4 -53 2 -60 -14 -60 -17 0 -18 13 -18
190 l0 190 390 0 390 0 0 -190z m-60 -100 l0 -90 -335 0 -335 0 0 90 0 90 335
0 335 0 0 -90z"/>
<path d="M1122 1013 l3 -28 360 0 360 0 3 28 3 27 -366 0 -366 0 3 -27z m718
-3 c0 -20 -7 -20 -353 -20 -346 0 -353 0 -354 20 -2 20 4 20 353 20 347 0 354
0 354 -20z"/>
<path d="M1160 1010 c0 -5 5 -10 11 -10 5 0 7 5 4 10 -3 6 -8 10 -11 10 -2 0
-4 -4 -4 -10z"/>
<path d="M1132 933 l3 -28 353 -3 352 -2 0 30 0 30 -356 0 -355 0 3 -27z m698
0 c0 -17 -25 -18 -345 -22 l-345 -4 0 22 0 21 345 0 c322 0 345 -1 345 -17z"/>
<path d="M1723 812 c-3 -7 0 -19 6 -25 10 -9 16 -8 27 7 8 11 14 22 14 26 0
12 -42 5 -47 -8z m14 -14 c-3 -8 -6 -5 -6 6 -1 11 2 17 5 13 3 -3 4 -12 1 -19z"/>
<path d="M1197 813 c-18 -18 -3 -29 38 -29 30 -1 45 3 45 12 0 8 -10 12 -27
10 -16 -1 -33 1 -39 6 -6 4 -14 5 -17 1z"/>
<path d="M1345 810 c-3 -5 0 -10 7 -10 10 0 9 -3 -2 -10 -10 -6 -5 -9 18 -8
18 1 32 6 32 12 0 7 3 7 8 1 11 -16 52 -17 52 -1 0 9 -13 13 -42 12 -24 -1
-48 2 -55 7 -6 4 -14 3 -18 -3z"/>
<path d="M1471 804 c-1 -16 5 -21 24 -21 15 0 25 5 25 13 0 17 -16 18 -26 2
-5 -8 -10 -6 -15 8 -7 18 -8 18 -8 -2z"/>
<path d="M1290 795 c0 -8 2 -15 4 -15 2 0 6 7 10 15 3 8 1 15 -4 15 -6 0 -10
-7 -10 -15z"/>
<path d="M1530 787 c0 -16 3 -18 11 -10 6 6 18 9 25 6 8 -3 14 1 14 10 0 9
-10 15 -25 15 -19 0 -25 -6 -25 -21z"/>
<path d="M1590 795 c0 -8 4 -15 8 -15 5 0 9 7 9 15 0 8 -4 15 -9 15 -4 0 -8
-7 -8 -15z"/>
<path d="M1388 443 c12 -2 32 -2 45 0 12 2 2 4 -23 4 -25 0 -35 -2 -22 -4z"/>
<path d="M1498 443 c18 -2 45 -2 60 0 15 2 0 4 -33 4 -33 0 -45 -2 -27 -4z"/>
<path d="M2124 1115 c-10 -8 -14 -14 -9 -15 15 0 40 18 34 24 -3 3 -14 -1 -25
-9z"/>
<path d="M780 1090 c0 -5 10 -10 23 -10 18 0 19 2 7 10 -19 13 -30 13 -30 0z"/>
<path d="M790 941 c0 -4 11 -6 25 -3 14 2 25 6 25 8 0 2 -11 4 -25 4 -14 0
-25 -4 -25 -9z"/>
<path d="M2133 923 c9 -2 23 -2 30 0 6 3 -1 5 -18 5 -16 0 -22 -2 -12 -5z"/>
<path d="M2080 706 c0 -2 7 -7 16 -10 8 -3 12 -2 9 4 -6 10 -25 14 -25 6z"/>
</g>
</svg>
