<?xml version="1.0" standalone="no"?>
<!DOCTYPE svg PUBLIC "-//W3C//DTD SVG 20010904//EN"
 "http://www.w3.org/TR/2001/REC-SVG-20010904/DTD/svg10.dtd">
<svg version="1.0" xmlns="http://www.w3.org/2000/svg"
 width="300.000000pt" height="236.000000pt" viewBox="0 0 300.000000 236.000000"
 preserveAspectRatio="xMidYMid meet">
<metadata>
Created by potrace 1.10, written by Peter Selinger 2001-2011
</metadata>
<g transform="translate(0.000000,236.000000) scale(0.100000,-0.100000)"
fill="#000000" stroke="none">
<path d="M1295 2244 c-300 -67 -534 -344 -538 -635 l0 -57 -56 -23 c-147 -59
-278 -185 -349 -331 -87 -181 -88 -413 -2 -593 175 -366 636 -502 980 -287 30
19 67 45 82 59 l27 26 43 -37 c127 -110 351 -172 525 -146 264 40 475 219 560
475 23 69 27 97 27 205 0 108 -4 136 -27 205 -64 194 -208 353 -389 428 l-53
22 -3 65 c-10 275 -210 526 -486 612 -85 26 -251 32 -341 12z m314 -30 c132
-33 269 -125 355 -236 81 -106 136 -254 136 -367 0 -45 -2 -52 -17 -47 -10 3
-51 10 -92 17 -161 24 -362 -32 -499 -141 l-53 -41 -40 34 c-128 110 -338 170
-510 147 -44 -6 -87 -14 -95 -17 -21 -8 -18 77 6 171 51 201 203 375 393 453
125 51 281 61 416 27z m-495 -669 c115 -24 228 -87 315 -175 86 -85 130 -155
169 -262 23 -65 26 -87 26 -208 -1 -119 -4 -144 -27 -208 -37 -107 -82 -177
-167 -262 -203 -204 -511 -249 -773 -113 -97 50 -218 171 -270 270 -103 196
-103 429 0 626 56 108 174 223 284 275 46 23 111 48 144 56 79 19 213 19 299
1z m934 4 c26 -7 50 -15 55 -19 12 -11 -40 -196 -73 -258 -80 -150 -186 -245
-372 -330 -5 -2 -8 11 -8 30 0 94 -77 278 -153 364 l-41 46 25 20 c129 104
272 157 427 157 51 1 114 -4 140 -10z m187 -72 c127 -68 252 -216 302 -359 32
-89 43 -266 23 -357 -54 -247 -234 -433 -486 -502 -65 -18 -97 -21 -189 -17
-156 7 -279 53 -394 147 l-35 29 41 46 c84 95 148 258 155 394 l4 63 54 23
c137 55 274 184 340 320 42 86 70 179 70 233 0 31 1 32 27 22 15 -6 54 -25 88
-42z"/>
<path d="M764 1470 c9 -71 49 -182 88 -248 18 -31 68 -91 110 -134 61 -61 96
-86 172 -124 l96 -47 0 -58 c0 -116 72 -300 153 -394 52 -59 55 -36 5 33 -183
247 -184 555 -3 800 43 59 49 94 8 49 -71 -77 -147 -247 -160 -358 l-6 -49
-88 46 c-185 95 -322 286 -355 492 -10 61 -28 54 -20 -8z"/>
<path d="M1565 919 c-34 -11 -160 -12 -250 -3 -33 4 -57 4 -54 0 17 -18 235
-28 304 -14 17 4 33 7 38 7 4 1 7 6 7 11 0 12 -5 12 -45 -1z"/>
</g>
</svg>
