<?xml version="1.0" standalone="no"?>
<!DOCTYPE svg PUBLIC "-//W3C//DTD SVG 20010904//EN"
 "http://www.w3.org/TR/2001/REC-SVG-20010904/DTD/svg10.dtd">
<svg version="1.0" xmlns="http://www.w3.org/2000/svg"
 width="300.000000pt" height="300.000000pt" viewBox="0 0 300.000000 300.000000"
 preserveAspectRatio="xMidYMid meet">
<metadata>
Created by potrace 1.10, written by Peter Selinger 2001-2011
</metadata>
<g transform="translate(0.000000,300.000000) scale(0.100000,-0.100000)"
fill="#000000" stroke="none">
<path d="M650 2950 c-35 -28 -43 -35 -61 -56 -9 -11 -25 -26 -35 -36 -10 -9
-122 -120 -248 -247 -126 -127 -232 -231 -235 -231 -3 0 -12 -12 -19 -28 -7
-15 132 117 308 293 176 176 320 321 320 322 0 5 -5 2 -30 -17z"/>
<path d="M1081 2921 c-23 -22 -41 -45 -41 -53 0 -7 11 -1 25 14 14 15 38 39
53 53 15 14 22 25 15 25 -6 0 -30 -18 -52 -39z"/>
<path d="M935 2660 c-164 -165 -295 -300 -291 -300 5 0 19 11 31 24 13 14 26
22 29 19 3 -4 6 -2 6 4 0 5 25 34 55 65 30 30 55 53 55 51 0 -3 15 13 34 36
18 22 36 37 40 34 3 -4 6 -2 6 4 0 14 207 223 221 223 5 0 8 4 5 8 -2 4 11 18
30 31 19 13 34 27 34 32 0 11 37 49 43 43 2 -2 4 3 4 11 0 8 -1 15 -1 15 -1 0
-136 -135 -301 -300z"/>
<path d="M1150 2635 c-178 -179 -322 -327 -319 -329 3 -3 151 141 329 319 178
178 322 326 319 329 -2 3 -150 -141 -329 -319z"/>
<path d="M1485 2855 c-60 -58 -105 -108 -102 -112 4 -3 7 0 7 7 0 7 3 11 6 7
5 -5 64 48 64 58 0 6 100 101 125 119 11 8 17 17 14 21 -4 3 -55 -42 -114
-100z"/>
<path d="M1914 2930 c-16 -17 -120 -121 -232 -232 -111 -110 -200 -203 -197
-206 6 -6 439 422 456 451 14 25 6 21 -27 -13z"/>
<path d="M2200 2864 c-52 -52 -117 -117 -145 -144 -127 -124 -268 -270 -264
-275 3 -2 122 113 264 255 143 143 255 260 250 260 -6 0 -53 -43 -105 -96z"/>
<path d="M2293 2845 c-64 -63 -115 -117 -112 -119 3 -3 46 35 96 84 49 50 87
90 84 90 -3 0 9 10 27 21 28 18 42 39 27 39 -3 0 -58 -52 -122 -115z"/>
<path d="M2579 2890 c-40 -38 -68 -70 -63 -70 5 0 41 32 78 70 38 39 66 70 63
70 -3 0 -39 -31 -78 -70z"/>
<path d="M2592 2788 c-391 -393 -495 -499 -491 -503 3 -2 158 149 344 335 187
187 335 340 330 340 -6 0 -88 -78 -183 -172z"/>
<path d="M46 2934 c-5 -14 -4 -15 9 -4 17 14 19 20 6 20 -5 0 -12 -7 -15 -16z"/>
<path d="M119 2893 c-82 -86 -83 -98 -1 -18 40 39 72 71 72 73 0 12 -25 -7
-71 -55z"/>
<path d="M180 2844 c-61 -60 -118 -122 -126 -138 -14 -29 -14 -29 6 -11 11 10
20 25 20 33 0 9 2 13 5 10 7 -7 155 140 155 153 0 5 3 8 8 7 10 -4 55 42 48
49 -3 3 -55 -43 -116 -103z"/>
<path d="M222 2766 c-100 -100 -182 -186 -182 -191 0 -5 25 17 56 48 31 31 60
57 65 57 4 0 10 8 13 18 4 11 16 24 29 31 12 7 31 25 42 41 10 16 23 26 27 24
4 -3 8 -1 8 4 0 5 30 39 66 76 37 37 65 69 62 71 -2 2 -86 -78 -186 -179z"/>
<path d="M496 2920 c-16 -17 -26 -33 -24 -35 2 -3 20 11 38 30 19 19 30 35 24
35 -5 0 -22 -14 -38 -30z"/>
<path d="M726 2920 c-16 -17 -26 -33 -23 -36 2 -3 14 6 25 20 10 14 22 22 26
19 3 -3 6 1 6 10 0 22 0 22 -34 -13z"/>
<path d="M529 2482 c-417 -418 -488 -492 -477 -492 2 0 219 216 483 480 264
264 475 480 470 480 -6 0 -220 -211 -476 -468z"/>
<path d="M1010 2613 c-184 -185 -326 -330 -315 -323 11 8 48 42 83 76 34 34
62 59 62 56 0 -4 5 0 10 8 11 17 469 477 473 474 1 -1 10 9 20 22 51 68 -28
-6 -333 -313z"/>
<path d="M1580 2715 c-129 -129 -230 -235 -225 -235 6 0 116 106 245 235 129
129 231 235 225 235 -5 0 -116 -106 -245 -235z"/>
<path d="M1815 2719 c-127 -127 -221 -227 -210 -221 26 14 461 452 449 452 -5
0 -113 -104 -239 -231z"/>
<path d="M1925 2710 c-132 -132 -235 -240 -230 -240 6 0 83 74 173 164 89 89
162 160 162 157 0 -3 4 1 10 9 5 8 40 45 77 82 37 38 63 68 58 68 -6 0 -118
-108 -250 -240z"/>
<path d="M2348 2781 c-95 -94 -168 -171 -162 -171 12 0 104 88 104 100 0 6 4
10 10 10 12 0 90 79 90 91 0 5 6 9 13 10 6 0 27 18 45 41 17 22 32 38 32 35 0
-4 12 5 27 19 14 13 23 27 20 30 -4 4 -84 -70 -179 -165z"/>
<path d="M2855 2940 c-3 -5 1 -10 10 -10 9 0 13 5 10 10 -3 6 -8 10 -10 10 -2
0 -7 -4 -10 -10z"/>
<path d="M771 2845 c-52 -52 -90 -95 -85 -95 11 1 54 36 54 44 0 3 32 37 71
76 39 38 67 70 63 70 -5 0 -51 -43 -103 -95z"/>
<path d="M1590 2845 c-52 -52 -89 -95 -82 -95 6 0 12 4 12 8 0 5 11 15 25 22
13 7 22 17 19 21 -3 5 6 14 20 20 14 7 23 16 20 21 -3 4 3 11 13 15 15 6 34
24 73 71 6 6 7 12 3 12 -4 0 -51 -43 -103 -95z"/>
<path d="M2615 2580 c-192 -192 -347 -351 -344 -354 3 -3 143 133 312 303 169
169 307 306 307 304 0 -2 18 17 40 42 36 41 45 55 38 55 -2 0 -160 -157 -353
-350z"/>
<path d="M2782 2867 c-53 -54 -64 -71 -37 -61 8 3 13 9 12 12 -1 4 2 7 6 7 5
0 15 12 23 28 8 15 22 27 30 27 8 0 13 4 9 9 -3 5 3 11 12 13 11 2 14 6 7 10
-6 4 -34 -16 -62 -45z"/>
<path d="M668 2860 c-10 -9 -18 -21 -18 -26 0 -5 4 -4 8 2 4 6 15 15 26 21 10
6 15 13 10 15 -5 3 -17 -2 -26 -12z"/>
<path d="M435 2860 c-3 -5 -2 -10 4 -10 5 0 13 5 16 10 3 6 2 10 -4 10 -5 0
-13 -4 -16 -10z"/>
<path d="M933 2774 c-51 -51 -93 -98 -93 -105 0 -6 43 32 96 85 53 52 94 99
92 104 -1 5 -45 -33 -95 -84z"/>
<path d="M335 2760 c-43 -44 -77 -82 -74 -84 3 -3 40 31 84 74 43 44 77 82 74
85 -3 2 -41 -31 -84 -75z"/>
<path d="M608 2800 c-30 -27 -35 -40 -17 -40 5 0 7 5 4 10 -3 6 -3 10 2 10 15
1 56 37 47 42 -5 2 -21 -7 -36 -22z"/>
<path d="M2261 2574 c-129 -128 -230 -234 -225 -234 5 0 115 106 244 235 129
129 230 235 225 234 -6 0 -115 -106 -244 -235z"/>
<path d="M2628 2472 c-186 -186 -338 -342 -338 -348 0 -11 632 618 661 659 11
15 19 27 17 27 -2 0 -155 -152 -340 -338z"/>
<path d="M2595 2680 c-66 -66 -115 -120 -110 -120 14 0 36 16 38 26 1 5 6 8
10 6 5 -1 6 2 3 7 -4 5 7 18 23 27 17 10 28 21 25 26 -3 4 2 8 10 8 9 0 15 3
14 8 -2 4 0 8 5 10 14 4 44 37 40 45 -2 4 3 7 11 7 8 0 18 9 21 20 3 11 10 20
15 20 4 0 10 7 14 15 3 8 4 15 3 15 -1 0 -56 -54 -122 -120z"/>
<path d="M545 2734 c-9 -15 -12 -23 -6 -20 11 7 35 46 28 46 -3 0 -12 -12 -22
-26z"/>
<path d="M353 2427 c-172 -172 -313 -317 -313 -322 0 -8 179 165 233 224 12
14 62 63 111 110 49 47 96 94 105 105 9 10 56 58 105 107 49 49 85 89 80 89
-5 0 -150 -141 -321 -313z"/>
<path d="M1171 2543 c-107 -106 -192 -195 -189 -198 5 -5 43 30 121 112 31 34
57 60 57 57 0 -5 19 15 78 79 23 26 42 44 42 41 0 -2 15 12 33 33 17 21 39 43
47 50 8 6 13 13 10 16 -3 2 -92 -83 -199 -190z"/>
<path d="M1338 2591 c-84 -83 -147 -151 -140 -151 7 0 21 10 31 23 11 12 29
33 40 46 12 13 21 21 21 18 0 -4 9 2 20 13 11 11 20 22 20 25 0 3 12 17 28 31
79 72 143 137 138 141 -3 3 -74 -62 -158 -146z"/>
<path d="M2016 2570 c-83 -82 -148 -152 -145 -155 3 -3 31 22 62 54 32 33 57
57 57 54 0 -2 12 10 27 29 15 18 32 36 38 40 41 28 131 130 112 128 -1 0 -69
-68 -151 -150z"/>
<path d="M498 2690 c-26 -24 -22 -35 4 -10 12 11 20 22 17 24 -2 2 -12 -4 -21
-14z"/>
<path d="M2752 2485 c-114 -113 -189 -196 -182 -200 6 -3 9 -1 8 6 -2 7 2 13
7 14 13 1 145 135 145 147 0 5 4 6 10 3 5 -3 22 12 37 33 16 22 42 50 60 63
17 13 34 33 37 44 3 10 8 16 12 13 3 -4 20 9 36 28 17 19 29 36 27 38 -2 2
-91 -83 -197 -189z"/>
<path d="M202 2627 c-23 -23 -42 -47 -42 -52 0 -6 20 12 45 38 41 44 50 57 42
57 -2 0 -22 -19 -45 -43z"/>
<path d="M648 2488 c-98 -98 -178 -182 -178 -188 0 -5 -6 -10 -14 -10 -12 0
-31 -28 -23 -36 5 -6 222 219 220 227 -2 5 3 9 10 9 15 0 170 156 166 167 -2
4 -84 -72 -181 -169z"/>
<path d="M411 2605 c-30 -31 -52 -58 -49 -61 3 -3 15 6 26 20 10 14 23 22 27
18 5 -4 5 -2 1 5 -4 7 2 17 13 23 17 8 49 51 39 50 -2 0 -27 -25 -57 -55z"/>
<path d="M2055 2490 c-60 -61 -104 -110 -97 -110 13 0 121 107 115 114 -3 2 5
7 16 11 11 3 23 15 26 26 4 10 11 19 16 19 9 0 49 36 49 45 0 15 -26 -6 -125
-105z"/>
<path d="M92 2516 c-70 -74 -66 -83 5 -13 31 31 54 59 51 62 -2 3 -28 -19 -56
-49z"/>
<path d="M2872 2486 c-43 -44 -69 -77 -63 -81 10 -6 15 0 12 17 0 4 8 9 18 13
10 3 24 17 31 30 7 14 15 23 18 21 5 -6 62 55 62 66 0 12 -1 12 -78 -66z"/>
<path d="M2315 2399 c-83 -83 -135 -141 -117 -128 17 12 32 27 32 31 0 5 5 6
12 2 7 -4 8 -3 4 4 -4 7 -1 12 8 12 9 0 15 6 13 13 -1 6 3 11 10 10 6 -2 15 6
18 17 4 11 11 17 17 14 7 -4 8 -2 4 5 -4 7 2 15 16 20 13 6 19 10 14 10 -15 1
26 41 41 41 8 0 11 5 8 10 -3 6 0 10 8 10 7 0 19 10 26 23 7 13 24 31 39 40
16 10 21 17 12 17 -8 0 -83 -68 -165 -151z"/>
<path d="M283 2475 c-24 -23 -43 -46 -43 -49 0 -4 20 13 45 37 24 24 48 41 51
38 4 -3 4 0 0 7 -9 15 -4 18 -53 -33z"/>
<path d="M2681 2174 c-157 -156 -280 -284 -275 -284 12 1 569 558 563 564 -3
3 -132 -123 -288 -280z"/>
<path d="M1357 2440 c-120 -19 -290 -85 -382 -149 -26 -18 -45 -21 -146 -21
-108 0 -117 -2 -137 -23 -20 -21 -22 -34 -22 -154 0 -128 -1 -132 -35 -206
-59 -127 -79 -230 -79 -392 0 -171 21 -262 94 -410 95 -195 241 -340 435 -435
145 -72 247 -94 420 -94 113 0 157 5 225 23 120 32 250 96 352 174 86 65 89
67 147 67 83 0 91 11 91 114 0 76 3 91 40 168 63 135 84 237 84 403 0 113 -5
156 -23 225 -26 100 -86 232 -136 301 -32 45 -35 55 -35 119 l0 70 -65 0 c-60
0 -68 3 -117 41 -75 57 -238 134 -338 159 -96 25 -281 34 -373 20z m336 -36
c90 -18 202 -63 285 -113 134 -81 140 -76 -96 -76 l-207 0 -3 -182 -2 -183
289 0 290 0 3 97 3 96 48 -84 c92 -162 134 -357 117 -535 -11 -115 -23 -168
-63 -268 l-32 -81 -5 318 c-4 268 -7 319 -20 327 -9 6 -171 10 -387 10 l-373
0 0 250 c0 244 -1 250 -22 270 -21 19 -34 20 -277 20 l-256 0 50 30 c188 112
430 150 658 104z m-933 -163 c0 -5 -7 -11 -15 -15 -24 -9 -18 -45 8 -50 12 -3
177 -4 366 -3 311 2 345 4 354 19 9 13 7 22 -7 37 -15 16 -16 21 -5 21 29 0
59 -31 59 -61 l0 -29 -415 0 -414 0 5 33 c7 33 28 57 51 57 7 0 13 -4 13 -9z
m55 -1 c-3 -5 -10 -10 -16 -10 -5 0 -9 5 -9 10 0 6 7 10 16 10 8 0 12 -4 9
-10z m55 0 c0 -5 -4 -10 -9 -10 -6 0 -13 5 -16 10 -3 6 1 10 9 10 9 0 16 -4
16 -10z m82 -3 c-24 -7 -36 -7 -44 1 -9 9 -1 12 33 11 l44 -1 -33 -11z m-165
-23 c8 -21 -13 -42 -28 -27 -13 13 -5 43 11 43 6 0 13 -7 17 -16z m60 0 c8
-21 -13 -42 -28 -27 -13 13 -5 43 11 43 6 0 13 -7 17 -16z m60 0 c8 -21 -13
-42 -28 -27 -13 13 -5 43 11 43 6 0 13 -7 17 -16z m548 -9 c0 -19 -8 -20 -249
-23 -148 -1 -254 2 -259 7 -5 5 -7 17 -4 26 6 13 36 15 259 13 245 -3 253 -4
253 -23z m735 -15 c-1 -10 -222 -141 -234 -138 -16 4 -225 132 -226 138 0 3
104 5 230 5 127 0 230 -2 230 -5z m-371 -84 l120 -73 -102 -63 c-56 -35 -112
-70 -124 -78 l-23 -14 0 151 c0 83 2 151 4 151 3 0 59 -33 125 -74z m409 -150
l-3 -75 -117 72 c-64 40 -117 74 -117 77 -1 3 52 37 117 77 l117 72 3 -75 c2
-40 2 -108 0 -148z m-708 -21 l0 -205 -167 0 c-141 0 -169 -3 -185 -17 -17
-15 -18 -39 -18 -345 l0 -328 -214 0 c-168 0 -216 3 -225 14 -8 9 -12 169 -14
550 l-2 536 413 0 412 0 0 -205z m456 76 c5 -5 58 -39 118 -75 l109 -66 -239
1 c-189 0 -235 3 -220 12 10 7 62 40 115 74 107 68 103 66 117 54z m-1301
-511 c0 -226 -1 -410 -3 -410 -8 0 -47 107 -69 190 -29 115 -33 293 -9 406 17
80 68 224 79 224 1 0 2 -185 2 -410z m1613 198 c7 -7 12 -31 12 -55 l0 -43
-40 0 c-45 0 -52 10 -17 25 22 10 25 40 6 60 -9 9 -312 11 -897 7 -117 -1
-142 -8 -142 -43 0 -25 28 -31 138 -29 118 3 122 3 122 -10 0 -6 -57 -10 -150
-10 l-150 0 0 36 c0 19 5 44 10 55 10 18 27 19 553 19 409 0 546 -3 555 -12z
m-1010 -41 c4 -20 -25 -34 -40 -19 -15 15 -1 44 19 40 10 -2 19 -11 21 -21z
m70 0 c4 -20 -25 -34 -40 -19 -15 15 -1 44 19 40 10 -2 19 -11 21 -21z m65 11
c7 -21 -4 -38 -23 -38 -10 0 -20 6 -23 13 -7 20 4 37 23 37 10 0 20 -6 23 -12z
m822 -13 c0 -20 -8 -20 -384 -23 -393 -2 -408 -1 -394 35 4 11 74 13 392 11
378 -3 386 -3 386 -23z m-688 -51 c-3 -3 -12 -4 -19 -1 -8 3 -5 6 6 6 11 1 17
-2 13 -5z m76 -1 c-7 -2 -21 -2 -30 0 -10 3 -4 5 12 5 17 0 24 -2 18 -5z m44
1 c-3 -3 -12 -4 -19 -1 -8 3 -5 6 6 6 11 1 17 -2 13 -5z m110 0 c-3 -3 -12 -4
-19 -1 -8 3 -5 6 6 6 11 1 17 -2 13 -5z m120 0 c-3 -3 -12 -4 -19 -1 -8 3 -5
6 6 6 11 1 17 -2 13 -5z m70 0 c-3 -3 -12 -4 -19 -1 -8 3 -5 6 6 6 11 1 17 -2
13 -5z m71 -1 c-10 -2 -26 -2 -35 0 -10 3 -2 5 17 5 19 0 27 -2 18 -5z m80 0
c-10 -2 -28 -2 -40 0 -13 2 -5 4 17 4 22 1 32 -1 23 -4z m182 -381 c0 -265 -3
-361 -12 -370 -17 -17 -1089 -17 -1106 0 -9 9 -12 105 -12 370 l0 358 565 0
565 0 0 -358z m-1360 -202 l209 0 3 -90 3 -90 -152 0 -151 0 -44 49 c-66 74
-115 146 -94 138 10 -4 111 -7 226 -7z m1135 -246 c-273 -211 -629 -257 -945
-121 -78 34 -160 85 -220 136 l-35 30 629 1 629 0 -58 -46z"/>
<path d="M1327 2345 c-20 -19 -31 -35 -24 -35 7 0 28 16 47 35 19 19 29 35 24
35 -5 0 -27 -16 -47 -35z"/>
<path d="M1467 2373 c-10 -9 -9 -23 1 -23 5 0 9 7 9 15 0 17 -1 18 -10 8z"/>
<path d="M1559 2343 l-34 -36 31 21 c36 24 61 52 47 52 -5 0 -25 -16 -44 -37z"/>
<path d="M1677 2344 c-15 -15 -27 -32 -27 -38 0 -6 14 4 32 21 18 18 30 35 27
38 -4 3 -18 -7 -32 -21z"/>
<path d="M1199 2330 c-13 -10 -19 -19 -13 -20 6 0 19 9 29 20 23 26 14 26 -16
0z"/>
<path d="M1424 2328 l-19 -23 23 19 c21 18 27 26 19 26 -2 0 -12 -10 -23 -22z"/>
<path d="M1762 2316 c-12 -14 -19 -26 -15 -29 4 -2 18 9 31 24 28 35 16 38
-16 5z"/>
<path d="M1514 2292 c2 -4 24 -9 48 -11 23 -1 40 0 38 2 -10 9 -91 17 -86 9z"/>
<path d="M1857 2293 c-4 -3 -7 -11 -7 -17 0 -6 5 -5 12 2 6 6 9 14 7 17 -3 3
-9 2 -12 -2z"/>
<path d="M1600 2265 c-7 -14 -17 -25 -22 -25 -4 0 -8 -5 -8 -11 0 -12 68 41
69 54 2 18 -27 5 -39 -18z"/>
<path d="M1675 2266 c17 -9 39 -15 49 -16 23 0 17 9 -10 15 -70 16 -70 16 -39
1z"/>
<path d="M1596 2144 c-4 -9 -4 -19 -1 -22 2 -3 7 3 11 12 4 9 4 19 1 22 -2 3
-7 -3 -11 -12z"/>
<path d="M1605 2040 c-10 -11 -16 -22 -14 -24 2 -2 12 7 22 20 22 29 17 32 -8
4z"/>
<path d="M1590 1899 c0 -5 5 -7 10 -4 6 3 10 8 10 11 0 2 -4 4 -10 4 -5 0 -10
-5 -10 -11z"/>
<path d="M1615 1810 c-16 -17 -24 -30 -19 -30 13 0 59 48 52 55 -2 3 -17 -9
-33 -25z"/>
<path d="M2210 1811 c0 -5 -8 -12 -17 -14 -15 -4 -15 -5 -2 -6 9 0 22 6 29 14
9 10 9 15 1 15 -6 0 -11 -4 -11 -9z"/>
<path d="M2315 1810 c-3 -5 -1 -10 4 -10 6 0 11 5 11 10 0 6 -2 10 -4 10 -3 0
-8 -4 -11 -10z"/>
<path d="M1947 1790 c-9 -11 -13 -20 -8 -20 4 0 16 9 26 20 10 11 14 20 9 20
-5 0 -17 -9 -27 -20z"/>
<path d="M2064 1788 l-19 -23 25 20 c14 11 27 21 29 22 2 2 0 3 -6 3 -5 0 -18
-10 -29 -22z"/>
<path d="M1700 1785 c-11 -13 -10 -14 4 -9 9 3 16 10 16 15 0 13 -6 11 -20 -6z"/>
<path d="M1819 1783 c-13 -16 -12 -17 4 -4 9 7 17 15 17 17 0 8 -8 3 -21 -13z"/>
<path d="M2230 1795 c0 -5 5 -17 10 -25 5 -8 10 -10 10 -5 0 6 -5 17 -10 25
-5 8 -10 11 -10 5z"/>
<path d="M2290 1780 c-8 -5 -12 -12 -9 -15 4 -3 12 1 19 10 14 17 11 19 -10 5z"/>
<path d="M2370 1515 c-7 -9 -11 -17 -9 -20 3 -2 10 5 17 15 14 24 10 26 -8 5z"/>
<path d="M750 2070 c0 -5 16 -10 35 -10 19 0 35 5 35 10 0 6 -16 10 -35 10
-19 0 -35 -4 -35 -10z"/>
<path d="M840 2070 c0 -5 20 -10 45 -10 25 0 45 5 45 10 0 6 -20 10 -45 10
-25 0 -45 -4 -45 -10z"/>
<path d="M750 2020 c0 -5 16 -10 35 -10 19 0 35 5 35 10 0 6 -16 10 -35 10
-19 0 -35 -4 -35 -10z"/>
<path d="M840 2020 c0 -5 20 -10 45 -10 25 0 45 5 45 10 0 6 -20 10 -45 10
-25 0 -45 -4 -45 -10z"/>
<path d="M880 1960 c0 -6 35 -10 85 -10 50 0 85 4 85 10 0 6 -35 10 -85 10
-50 0 -85 -4 -85 -10z"/>
<path d="M1070 1960 c0 -6 35 -10 85 -10 50 0 85 4 85 10 0 6 -35 10 -85 10
-50 0 -85 -4 -85 -10z"/>
<path d="M1260 1960 c0 -6 37 -10 90 -10 53 0 90 4 90 10 0 6 -37 10 -90 10
-53 0 -90 -4 -90 -10z"/>
<path d="M880 1905 c0 -12 15 -15 86 -15 64 0 85 3 82 13 -3 8 -32 13 -86 15
-68 2 -82 0 -82 -13z"/>
<path d="M1070 1904 c0 -11 19 -14 85 -14 67 0 85 3 85 14 0 12 -17 15 -85 14
-65 0 -85 -4 -85 -14z"/>
<path d="M1267 1913 c-19 -18 1 -24 78 -21 48 2 85 7 85 13 0 11 -153 19 -163
8z"/>
<path d="M880 1850 c0 -6 35 -10 85 -10 50 0 85 4 85 10 0 6 -35 10 -85 10
-50 0 -85 -4 -85 -10z"/>
<path d="M1070 1850 c0 -6 35 -10 85 -10 50 0 85 4 85 10 0 6 -35 10 -85 10
-50 0 -85 -4 -85 -10z"/>
<path d="M1260 1850 c0 -6 37 -10 91 -10 57 0 88 4 84 10 -3 6 -44 10 -91 10
-49 0 -84 -4 -84 -10z"/>
<path d="M757 1764 c-15 -16 -5 -24 29 -24 24 0 34 4 32 13 -5 13 -50 22 -61
11z"/>
<path d="M840 1755 c0 -13 9 -16 43 -13 23 2 42 8 42 13 0 6 -19 11 -42 13
-34 3 -43 0 -43 -13z"/>
<path d="M757 1714 c-12 -12 4 -24 34 -24 19 0 29 5 29 15 0 15 -50 22 -63 9z"/>
<path d="M840 1705 c0 -13 9 -16 43 -13 23 2 42 8 42 13 0 6 -19 11 -42 13
-34 3 -43 0 -43 -13z"/>
<path d="M880 1643 c0 -10 21 -13 85 -13 65 0 85 3 85 14 0 10 -20 13 -85 13
-64 0 -85 -4 -85 -14z"/>
<path d="M1070 1645 c0 -12 8 -16 33 -13 17 2 32 8 32 13 0 6 -15 11 -32 13
-25 3 -33 -1 -33 -13z"/>
<path d="M880 1590 c0 -6 35 -10 85 -10 50 0 85 4 85 10 0 6 -35 10 -85 10
-50 0 -85 -4 -85 -10z"/>
<path d="M1070 1590 c0 -5 16 -10 35 -10 19 0 35 5 35 10 0 6 -16 10 -35 10
-19 0 -35 -4 -35 -10z"/>
<path d="M880 1530 c0 -6 35 -10 85 -10 50 0 85 4 85 10 0 6 -35 10 -85 10
-50 0 -85 -4 -85 -10z"/>
<path d="M1070 1530 c0 -5 13 -10 29 -10 17 0 33 5 36 10 4 6 -8 10 -29 10
-20 0 -36 -4 -36 -10z"/>
<path d="M938 1323 c-8 -10 -21 -34 -28 -53 -18 -48 -26 -55 -43 -39 -13 12
-13 17 1 42 14 23 15 29 3 36 -36 23 -129 -36 -115 -73 3 -9 10 -16 16 -16 5
0 6 -4 3 -10 -3 -5 3 -10 14 -10 30 0 70 -21 65 -34 -2 -6 7 -16 21 -23 22
-10 27 -8 45 14 11 14 20 31 20 37 0 6 9 26 20 44 17 28 23 32 35 22 13 -10
12 -14 0 -27 -8 -8 -15 -20 -15 -26 0 -9 2 -9 8 0 4 7 23 19 42 27 l35 15 -37
15 c-34 15 -52 36 -30 36 20 0 92 -42 92 -53 0 -6 -24 -23 -53 -36 -28 -13
-46 -25 -40 -28 7 -2 32 6 55 19 35 19 43 29 43 52 0 21 -5 30 -19 32 -10 1
-22 7 -25 13 -3 5 -19 13 -34 16 -15 4 -27 11 -27 16 0 16 -36 10 -52 -8z m42
3 c0 -14 -84 -176 -91 -176 -13 0 -13 -1 31 94 21 47 44 86 50 86 5 0 10 -2
10 -4z m-120 -37 c0 -6 -13 -16 -30 -22 -16 -6 -30 -14 -30 -18 0 -4 14 -12
30 -18 17 -5 30 -16 30 -24 0 -11 -10 -10 -45 7 -24 12 -44 27 -45 33 0 7 17
21 38 32 43 23 52 25 52 10z"/>
<path d="M2155 1530 c-3 -5 -2 -10 4 -10 5 0 13 5 16 10 3 6 2 10 -4 10 -5 0
-13 -4 -16 -10z"/>
<path d="M1260 1335 l0 -165 165 0 165 0 0 165 0 165 -165 0 -165 0 0 -165z
m121 131 c-7 -8 -20 -12 -31 -9 -20 5 -56 -38 -46 -55 3 -6 -1 -15 -9 -22 -13
-11 -15 -6 -15 38 0 56 4 60 69 61 36 1 41 -1 32 -13z m178 -43 c-1 -33 -5
-49 -10 -41 -5 7 -9 22 -9 33 0 23 -36 59 -45 45 -7 -11 -35 -2 -35 11 0 5 23
8 50 8 l50 -2 -1 -54z m-112 30 c9 -26 25 -34 41 -21 20 17 50 -15 33 -36 -14
-17 -7 -36 15 -36 8 0 14 -10 14 -25 0 -15 -6 -25 -14 -25 -22 0 -29 -19 -15
-36 10 -12 9 -18 -4 -31 -13 -13 -19 -14 -31 -4 -17 14 -36 7 -36 -15 0 -8
-10 -14 -25 -14 -15 0 -25 6 -25 14 0 18 -23 27 -41 16 -21 -14 -39 8 -33 39
5 23 2 29 -15 34 -27 7 -29 47 -2 47 23 0 34 23 18 39 -8 8 -7 16 6 28 12 13
20 14 28 6 16 -16 39 -5 39 18 0 25 38 26 47 2z m-142 -187 c1 -29 18 -46 48
-46 9 0 17 -4 17 -10 0 -5 -20 -10 -45 -10 l-45 0 0 51 c0 36 4 49 13 47 6 -3
12 -17 12 -32z m255 18 c0 -8 -4 -12 -10 -9 -5 3 -10 10 -10 16 0 5 5 9 10 9
6 0 10 -7 10 -16z m-1 -79 c-6 -9 -21 -10 -87 -6 -7 1 -11 5 -8 10 3 5 14 7
24 4 11 -3 28 6 43 21 l24 25 6 -22 c3 -12 2 -26 -2 -32z"/>
<path d="M1386 1358 c-13 -19 -14 -25 -2 -43 26 -40 86 -27 86 19 0 47 -57 63
-84 24z m53 -12 c8 -10 8 -16 -2 -24 -17 -14 -42 2 -34 22 8 20 21 20 36 2z"/>
<path d="M1660 1445 l0 -55 243 0 242 0 0 55 0 55 -242 0 -243 0 0 -55z m433
29 c21 -4 27 -11 27 -30 0 -24 -1 -24 -107 -25 -98 0 -279 1 -310 4 -13 0 -18
38 -7 49 7 7 360 8 397 2z"/>
<path d="M2235 1490 c3 -5 8 -10 11 -10 2 0 4 5 4 10 0 6 -5 10 -11 10 -5 0
-7 -4 -4 -10z"/>
<path d="M2195 1460 c-10 -11 -15 -23 -12 -27 4 -3 7 -1 7 6 0 7 4 10 9 7 5
-3 14 1 20 8 19 23 -4 28 -24 6z"/>
<path d="M2125 1270 c-71 -71 -125 -130 -120 -130 5 0 37 29 71 64 34 36 66
61 70 58 4 -4 4 -2 1 4 -4 6 7 22 24 35 28 21 96 99 87 99 -2 0 -62 -58 -133
-130z"/>
<path d="M1660 1340 c0 -19 7 -20 190 -20 183 0 190 1 190 20 0 19 -7 20 -190
20 -183 0 -190 -1 -190 -20z"/>
<path d="M2080 1340 c0 -5 5 -10 11 -10 5 0 7 5 4 10 -3 6 -8 10 -11 10 -2 0
-4 -4 -4 -10z"/>
<path d="M1916 1284 c-23 -23 -20 -30 4 -9 11 10 20 20 20 22 0 7 -9 2 -24
-13z"/>
<path d="M1667 1283 c-4 -3 -7 -12 -7 -20 0 -14 55 -19 64 -4 3 4 -7 6 -22 3
-24 -5 -26 -4 -13 11 11 15 11 17 -1 17 -8 0 -18 -3 -21 -7z"/>
<path d="M1753 1282 c10 -2 16 -10 14 -17 -4 -9 8 -12 46 -12 32 0 39 2 20 4
-33 4 -43 17 -20 26 6 3 -8 4 -33 4 -25 0 -37 -2 -27 -5z"/>
<path d="M1840 1280 c0 -5 6 -7 14 -4 8 3 16 -2 19 -13 4 -14 5 -14 6 5 1 16
-5 22 -19 22 -11 0 -20 -4 -20 -10z"/>
<path d="M1990 1255 c-17 -18 -20 -25 -8 -25 8 0 25 11 38 25 17 18 20 25 8
25 -8 0 -25 -11 -38 -25z"/>
<path d="M2201 1225 c-24 -25 -39 -45 -34 -45 5 0 29 20 53 45 24 25 40 45 34
45 -5 0 -29 -20 -53 -45z"/>
<path d="M1839 1212 c-14 -8 -30 -25 -35 -36 -5 -12 -15 -20 -22 -18 -7 1 -12
-2 -12 -8 0 -19 16 -10 60 35 48 49 49 51 9 27z"/>
<path d="M1680 1175 c-19 -19 -30 -35 -24 -35 6 0 25 16 44 35 19 19 30 35 24
35 -5 0 -25 -16 -44 -35z"/>
<path d="M1924 1189 c-24 -26 0 -32 25 -5 16 17 18 23 6 23 -8 0 -22 -8 -31
-18z"/>
<path d="M2130 1155 c-7 -8 -8 -15 -2 -15 5 0 15 7 22 15 7 8 8 15 2 15 -5 0
-15 -7 -22 -15z"/>
<path d="M2240 1150 c-6 -11 -7 -20 -2 -20 6 0 12 9 15 20 3 11 3 20 1 20 -2
0 -8 -9 -14 -20z"/>
<path d="M1886 1151 c-4 -5 -2 -12 3 -15 5 -4 12 -2 15 3 4 5 2 12 -3 15 -5 4
-12 2 -15 -3z"/>
<path d="M1260 1055 l0 -55 145 0 145 0 0 55 0 55 -145 0 -145 0 0 -55z m260
26 c3 -1 6 -13 5 -28 l0 -28 -103 -2 c-63 -1 -100 2 -97 7 4 6 -4 6 -19 0 -25
-9 -26 -8 -26 24 l0 33 118 -2 c64 -2 119 -4 122 -4z"/>
<path d="M1590 1055 l0 -55 145 0 145 0 0 55 0 55 -145 0 -145 0 0 -55z m225
11 c-5 -19 -5 -19 5 -3 18 28 42 22 38 -10 -3 -23 -8 -28 -35 -29 -18 -1 -33
2 -33 8 0 5 -9 4 -20 -2 -11 -6 -51 -9 -88 -7 -54 3 -68 7 -70 21 -8 38 3 42
107 42 98 1 101 0 96 -20z"/>
<path d="M1690 1060 c-9 -6 -10 -10 -3 -10 6 0 15 5 18 10 8 12 4 12 -15 0z"/>
<path d="M1921 1055 l2 -55 146 0 146 0 0 55 0 55 -147 0 -148 0 1 -55z m260
26 c13 -2 17 -40 5 -49 -9 -8 -205 -10 -238 -4 -13 3 -9 30 6 44 10 11 40 14
117 13 57 -1 107 -3 110 -4z"/>
<path d="M1260 969 c0 -10 104 -18 113 -10 4 4 27 5 50 1 47 -7 127 -2 127 9
0 3 -65 6 -145 6 -80 0 -145 -3 -145 -6z"/>
<path d="M1590 965 c0 -6 55 -10 145 -10 90 0 145 4 145 10 0 6 -55 10 -145
10 -90 0 -145 -4 -145 -10z"/>
<path d="M1930 965 c0 -8 112 -12 145 -5 6 1 12 2 15 2 3 0 31 -3 63 -5 39 -4
57 -2 57 6 0 9 -40 12 -140 12 -88 0 -140 -4 -140 -10z"/>
<path d="M1220 950 c-9 -6 -10 -10 -3 -10 6 0 15 5 18 10 8 12 4 12 -15 0z"/>
<path d="M1540 915 c-19 -19 -29 -35 -24 -35 13 0 69 58 63 65 -3 2 -21 -11
-39 -30z"/>
<path d="M1260 920 c0 -6 28 -10 65 -10 37 0 65 4 65 10 0 6 -28 10 -65 10
-37 0 -65 -4 -65 -10z"/>
<path d="M1410 905 c-13 -14 -20 -25 -16 -25 4 0 19 11 34 25 15 14 22 25 16
25 -6 0 -21 -11 -34 -25z"/>
<path d="M1590 920 c0 -6 28 -10 65 -10 37 0 65 4 65 10 0 6 -28 10 -65 10
-37 0 -65 -4 -65 -10z"/>
<path d="M1760 905 c-13 -14 -20 -25 -15 -25 4 0 18 11 31 25 13 14 20 25 15
25 -4 0 -18 -11 -31 -25z"/>
<path d="M1925 920 c3 -5 35 -10 71 -10 36 0 64 4 64 10 0 6 -30 10 -71 10
-44 0 -68 -4 -64 -10z"/>
<path d="M1874 895 c-10 -8 -14 -15 -8 -15 6 0 17 7 24 15 16 19 9 19 -16 0z"/>
<path d="M2100 895 c-16 -19 -1 -19 24 0 16 12 17 15 4 15 -8 0 -21 -7 -28
-15z"/>
<path d="M900 984 c0 -10 41 -51 90 -89 l25 -20 -18 21 c-19 22 -15 49 9 58 8
3 14 11 14 18 0 6 -14 -1 -31 -18 l-31 -29 -29 35 c-16 19 -29 30 -29 24z"/>
<path d="M851 935 c-13 -14 -18 -25 -13 -25 13 0 42 28 42 41 0 13 -2 12 -29
-16z"/>
<path d="M1069 903 l-24 -28 28 24 c15 14 27 26 27 28 0 8 -8 1 -31 -24z"/>
<path d="M930 895 c-8 -9 -8 -15 -2 -15 12 0 26 19 19 26 -2 2 -10 -2 -17 -11z"/>
<path d="M1020 869 c0 -5 5 -7 10 -4 6 3 10 8 10 11 0 2 -4 4 -10 4 -5 0 -10
-5 -10 -11z"/>
<path d="M1012 760 c7 -11 16 -20 20 -20 15 0 8 15 -12 28 -19 12 -20 11 -8
-8z"/>
<path d="M1746 764 c-5 -14 -4 -15 9 -4 17 14 19 20 6 20 -5 0 -12 -7 -15 -16z"/>
<path d="M1850 760 c-14 -11 -20 -20 -13 -20 11 0 43 26 43 36 0 7 -4 5 -30
-16z"/>
<path d="M1167 754 c-18 -19 18 -24 154 -24 126 0 149 2 149 15 0 13 -23 15
-148 15 -82 0 -152 -3 -155 -6z"/>
<path d="M1495 750 c-3 -5 0 -13 9 -16 21 -8 61 -1 61 11 0 14 -62 19 -70 5z"/>
<path d="M1582 748 c5 -15 48 -18 48 -3 0 6 -11 11 -26 13 -18 3 -25 0 -22
-10z"/>
<path d="M1360 690 c0 -5 14 -10 30 -10 17 0 30 5 30 10 0 6 -13 10 -30 10
-16 0 -30 -4 -30 -10z"/>
<path d="M1430 690 c0 -5 18 -10 41 -10 24 0 38 4 34 10 -3 6 -22 10 -41 10
-19 0 -34 -4 -34 -10z"/>
<path d="M1530 690 c0 -6 59 -10 156 -10 101 0 153 3 149 10 -4 6 -67 10 -156
10 -93 0 -149 -4 -149 -10z"/>
<path d="M1299 671 c-13 -11 -21 -22 -18 -25 3 -3 16 5 29 19 28 30 22 33 -11
6z"/>
<path d="M182 2375 c-43 -45 -49 -55 -32 -55 6 0 10 7 10 16 0 8 5 12 10 9 6
-4 9 -2 8 4 -2 6 11 21 27 35 17 13 28 27 25 29 -3 3 -24 -14 -48 -38z"/>
<path d="M2651 2265 c-73 -74 -129 -135 -124 -135 11 0 63 45 63 55 0 9 39 45
50 45 5 0 15 10 21 23 7 12 21 29 31 37 40 31 71 60 63 60 -5 0 1 9 13 20 19
18 27 30 20 30 -2 0 -63 -61 -137 -135z"/>
<path d="M438 2162 c-104 -103 -188 -192 -188 -197 0 -5 27 18 60 53 33 34 60
60 60 57 0 -2 23 20 51 50 97 103 200 205 217 215 14 7 14 9 2 10 -8 0 -99
-85 -202 -188z"/>
<path d="M2932 2305 c-11 -13 -22 -21 -26 -18 -3 3 -6 1 -6 -5 0 -6 -32 -42
-71 -79 -107 -104 -224 -223 -227 -234 -2 -5 -10 -9 -18 -9 -8 0 -14 -3 -14
-7 0 -5 -29 -38 -65 -75 -36 -38 -65 -71 -65 -75 0 -10 499 487 511 510 14 25
4 21 -19 -8z"/>
<path d="M78 2270 c-15 -15 -24 -30 -21 -34 4 -3 0 -6 -7 -6 -7 0 -10 -3 -7
-7 4 -4 22 10 41 30 39 43 34 58 -6 17z"/>
<path d="M2433 2166 c-62 -62 -113 -116 -113 -120 0 -12 64 44 77 68 7 11 12
17 13 12 0 -12 50 42 50 55 0 5 5 9 11 9 9 0 89 78 89 87 0 13 -30 -13 -127
-111z"/>
<path d="M375 2216 c-21 -22 -38 -44 -37 -48 1 -5 -3 -8 -10 -8 -15 0 -92 -79
-94 -97 -2 -10 5 -7 19 8 12 13 21 27 20 31 -2 5 2 8 8 8 16 0 142 127 137
138 -1 5 -21 -9 -43 -32z"/>
<path d="M347 1952 c-169 -169 -307 -312 -307 -317 0 -5 103 94 230 221 126
127 232 228 236 225 3 -3 4 -1 3 4 -2 6 21 35 51 65 30 30 66 67 79 83 67 75
-12 -1 -292 -281z"/>
<path d="M2935 2199 c-4 -6 -5 -12 -2 -15 2 -3 7 2 10 11 7 17 1 20 -8 4z"/>
<path d="M2887 2152 c-15 -16 -27 -35 -26 -43 0 -7 4 -4 10 9 5 13 13 21 18
18 4 -3 16 3 25 13 28 31 2 33 -27 3z"/>
<path d="M2500 2110 c-13 -8 -12 -10 3 -10 9 0 17 5 17 10 0 12 -1 12 -20 0z"/>
<path d="M2800 2065 c-24 -25 -41 -48 -37 -51 4 -4 7 -2 7 4 0 7 4 11 9 10 5
-2 10 2 11 7 3 19 22 35 34 28 6 -3 8 -3 4 2 -4 4 0 14 10 21 9 7 14 15 11 18
-3 3 -25 -14 -49 -39z"/>
<path d="M471 1955 c-80 -80 -148 -145 -153 -145 -4 0 -8 -4 -8 -8 0 -9 -204
-216 -226 -230 -6 -4 -17 -18 -24 -32 -7 -14 119 105 279 265 160 159 291 291
291 292 0 14 -36 -18 -159 -142z"/>
<path d="M2715 1860 c-131 -132 -237 -242 -234 -244 3 -3 80 71 172 164 92 93
167 167 167 164 0 -3 15 12 33 33 17 21 50 55 72 75 22 20 37 39 34 42 -3 3
-113 -102 -244 -234z"/>
<path d="M2422 2036 c-29 -31 -37 -43 -23 -39 15 4 81 84 69 83 -2 0 -22 -20
-46 -44z"/>
<path d="M148 1989 c-32 -32 -58 -64 -58 -70 0 -6 29 18 65 53 36 36 65 68 65
72 0 15 -18 1 -72 -55z"/>
<path d="M2702 1967 c-23 -23 -42 -49 -42 -57 0 -7 -3 -10 -7 -7 -4 4 -19 -5
-35 -20 -29 -28 -35 -43 -18 -43 6 0 9 6 8 13 -2 6 3 11 10 9 8 -1 11 2 8 7
-3 5 1 14 9 21 8 7 15 9 15 4 0 -13 25 16 25 29 1 7 7 11 15 9 8 -2 12 0 8 4
-11 10 12 35 25 27 5 -3 7 -1 4 4 -8 13 17 36 28 25 5 -4 5 -1 1 6 -9 16 -6
18 -54 -31z"/>
<path d="M506 1879 c-60 -60 -106 -112 -104 -115 3 -2 22 14 42 36 20 22 36
37 36 33 0 -4 11 7 23 25 13 17 26 30 28 29 2 -2 25 18 51 45 25 26 43 50 39
52 -4 3 -56 -45 -115 -105z"/>
<path d="M2728 1752 c-131 -131 -238 -242 -238 -247 0 -11 432 417 461 458 11
15 19 27 17 27 -2 0 -110 -107 -240 -238z"/>
<path d="M137 1861 c-53 -55 -97 -105 -97 -111 0 -12 79 70 80 83 0 4 6 7 14
7 8 0 18 9 21 21 4 11 9 18 12 16 2 -3 21 12 40 34 20 22 34 42 31 44 -2 2
-48 -40 -101 -94z"/>
<path d="M65 1903 c-4 -13 -11 -23 -16 -23 -5 0 -9 -5 -9 -12 0 -7 9 -3 21 9
12 11 19 27 16 34 -4 10 -8 7 -12 -8z"/>
<path d="M2720 1633 c-124 -126 -230 -237 -234 -247 -4 -11 9 -3 31 20 20 21
36 42 35 47 -1 4 2 7 7 7 12 0 101 89 101 100 0 6 5 10 10 10 6 0 19 9 30 20
11 11 20 25 20 30 0 6 5 10 10 10 14 0 150 139 150 153 0 5 3 8 6 5 3 -4 13 1
22 11 38 39 55 61 47 61 -4 0 -110 -102 -235 -227z"/>
<path d="M2521 1786 c-37 -38 -49 -56 -40 -61 8 -5 10 -4 5 3 -4 7 -1 12 8 12
9 0 15 6 14 13 -2 6 3 11 10 10 6 -2 11 2 10 9 -2 7 2 12 9 13 15 0 28 13 28
28 1 7 7 11 14 9 7 -1 10 2 6 8 -8 14 -4 16 -64 -44z"/>
<path d="M495 1748 c-33 -34 -52 -59 -42 -55 10 4 21 7 23 7 2 0 4 4 4 9 0 5
18 27 40 50 35 36 46 51 37 51 -1 0 -29 -28 -62 -62z"/>
<path d="M352 1724 c-46 -47 -36 -58 11 -13 21 21 35 39 30 42 -4 3 -23 -10
-41 -29z"/>
<path d="M2693 1487 c-134 -134 -243 -247 -243 -252 0 -5 38 29 84 77 46 48
87 84 90 81 3 -4 6 -2 6 4 0 14 56 74 63 68 4 -3 5 -3 3 1 -5 7 47 61 57 56 4
-2 7 4 7 12 0 9 7 16 15 16 8 0 15 5 15 11 0 5 37 46 83 89 45 44 78 80 72 80
-5 0 -119 -110 -252 -243z"/>
<path d="M172 1543 c-74 -74 -131 -137 -129 -139 6 -6 268 259 265 268 -2 3
-63 -55 -136 -129z"/>
<path d="M397 1650 c-23 -22 -25 -28 -10 -24 17 5 49 42 41 49 -2 2 -16 -9
-31 -25z"/>
<path d="M287 1423 c-120 -120 -223 -227 -228 -238 -6 -11 95 86 225 215 130
129 236 236 236 237 0 14 -45 -27 -233 -214z"/>
<path d="M2891 1565 c-84 -85 -87 -102 -5 -22 48 46 91 97 81 97 -2 0 -36 -34
-76 -75z"/>
<path d="M256 1511 c-58 -59 -96 -105 -93 -113 4 -9 6 -7 6 5 1 9 4 17 9 17 8
0 132 118 132 126 0 2 15 18 33 34 17 16 28 30 22 30 -5 0 -54 -45 -109 -99z"/>
<path d="M387 1404 c-65 -63 -117 -117 -117 -119 0 -2 -13 -17 -30 -33 -16
-17 -30 -29 -30 -26 0 2 -20 -17 -45 -43 -25 -25 -45 -50 -45 -56 0 -6 -3 -8
-6 -4 -7 7 -33 -19 -58 -58 -10 -17 89 77 220 207 131 131 235 240 232 243 -2
3 -57 -47 -121 -111z"/>
<path d="M2928 1483 c-14 -16 -45 -47 -69 -69 -24 -23 -142 -141 -262 -263
-120 -122 -222 -221 -228 -221 -5 0 -9 -8 -9 -17 0 -17 570 542 591 580 14 25
6 21 -23 -10z"/>
<path d="M2740 1414 c-36 -35 -60 -64 -55 -64 12 0 130 118 124 124 -2 2 -33
-25 -69 -60z"/>
<path d="M391 1295 c-63 -63 -112 -117 -109 -120 2 -3 23 14 46 37 22 24 68
70 102 103 52 50 89 96 78 95 -2 0 -54 -52 -117 -115z"/>
<path d="M133 1385 c-3 -9 -3 -18 -1 -21 3 -3 8 4 11 16 6 23 -1 27 -10 5z"/>
<path d="M2906 1350 c-22 -21 -25 -29 -15 -35 8 -5 11 -5 7 0 -4 4 6 18 23 31
17 12 27 24 22 27 -4 2 -21 -8 -37 -23z"/>
<path d="M81 1336 c-20 -21 -29 -36 -22 -40 6 -4 11 -3 11 1 0 5 12 21 26 36
38 41 24 43 -15 3z"/>
<path d="M2620 1295 c-24 -25 -40 -45 -35 -45 13 1 90 78 84 85 -3 2 -25 -16
-49 -40z"/>
<path d="M285 1069 c-132 -131 -235 -239 -230 -239 13 0 480 468 474 474 -3 3
-112 -103 -244 -235z"/>
<path d="M2860 1294 c0 -8 5 -12 10 -9 6 3 10 10 10 16 0 5 -4 9 -10 9 -5 0
-10 -7 -10 -16z"/>
<path d="M2835 1279 c-4 -6 -5 -12 -2 -15 2 -3 7 2 10 11 7 17 1 20 -8 4z"/>
<path d="M2940 1265 c-7 -8 -8 -15 -2 -15 5 0 15 7 22 15 7 8 8 15 2 15 -5 0
-15 -7 -22 -15z"/>
<path d="M2783 1226 c-18 -17 -33 -36 -33 -41 0 -6 4 -4 8 3 5 6 23 23 41 36
18 13 29 26 24 28 -4 3 -23 -9 -40 -26z"/>
<path d="M2535 1210 c-16 -16 -25 -30 -19 -30 12 1 70 60 58 60 -6 0 -23 -13
-39 -30z"/>
<path d="M2715 1040 c-110 -110 -196 -200 -191 -200 8 0 70 55 104 94 9 10 82
83 162 162 79 79 140 144 135 144 -6 0 -100 -90 -210 -200z"/>
<path d="M457 1123 c-47 -49 -154 -155 -237 -238 -83 -82 -156 -159 -162 -170
-5 -11 105 95 246 235 141 140 256 256 256 257 0 14 -30 -11 -103 -84z"/>
<path d="M160 1065 c-58 -58 -97 -103 -87 -99 9 3 17 10 17 14 0 5 9 12 21 15
11 4 18 9 16 11 -5 6 62 74 72 74 4 0 15 14 24 30 10 17 25 30 33 30 8 0 14 7
14 15 0 8 -1 15 -3 15 -1 0 -50 -47 -107 -105z"/>
<path d="M2465 1140 c-16 -17 -25 -30 -19 -30 12 0 58 49 52 55 -2 3 -17 -9
-33 -25z"/>
<path d="M2697 1134 c-26 -35 -17 -38 11 -3 13 16 20 29 15 29 -4 0 -16 -12
-26 -26z"/>
<path d="M2395 598 c-308 -308 -551 -556 -540 -550 23 12 1105 1095 1105 1105
0 4 -1 7 -2 7 -2 0 -255 -253 -563 -562z"/>
<path d="M507 1060 c-37 -38 -67 -74 -67 -81 0 -6 20 11 45 37 24 27 57 61 72
76 15 15 25 29 22 32 -3 3 -35 -26 -72 -64z"/>
<path d="M2415 1090 c-3 -6 1 -7 9 -4 18 7 21 14 7 14 -6 0 -13 -4 -16 -10z"/>
<path d="M2635 1076 c-18 -19 -26 -36 -18 -36 9 0 37 40 31 45 -2 2 -8 -2 -13
-9z"/>
<path d="M2380 1048 c-12 -22 -12 -22 6 -6 10 10 15 20 12 24 -4 3 -12 -5 -18
-18z"/>
<path d="M2941 1031 c-13 -10 -22 -23 -20 -30 3 -7 14 1 27 18 26 36 25 37 -7
12z"/>
<path d="M2591 1027 c-1 -11 -6 -15 -13 -11 -7 5 -8 3 -3 -5 10 -16 29 2 22
21 -4 8 -6 7 -6 -5z"/>
<path d="M516 950 c-44 -45 -72 -78 -63 -74 16 6 157 141 157 150 0 14 -25 -6
-94 -76z"/>
<path d="M2545 990 c-3 -6 1 -7 9 -4 18 7 21 14 7 14 -6 0 -13 -4 -16 -10z"/>
<path d="M2887 975 c-9 -16 -16 -27 -17 -23 0 11 -90 -83 -90 -94 0 -6 30 19
66 55 37 36 64 71 62 79 -3 8 -11 2 -21 -17z"/>
<path d="M231 784 c-106 -107 -191 -198 -187 -201 8 -9 37 18 30 28 -3 5 2 9
10 9 8 0 21 10 27 23 7 12 17 25 23 29 23 15 296 291 296 299 0 5 -1 9 -3 9
-1 0 -89 -88 -196 -196z"/>
<path d="M361 674 c-167 -167 -302 -306 -300 -309 3 -2 142 133 309 300 167
167 302 306 299 309 -2 2 -141 -133 -308 -300z"/>
<path d="M2512 954 c-12 -8 -22 -21 -22 -27 0 -8 3 -9 8 -1 4 5 18 18 32 27
13 9 20 17 14 17 -5 0 -20 -7 -32 -16z"/>
<path d="M41 934 c0 -11 3 -14 6 -6 3 7 2 16 -1 19 -3 4 -6 -2 -5 -13z"/>
<path d="M2446 888 c-16 -15 -26 -31 -23 -35 4 -3 7 -1 7 5 0 7 6 12 13 12 11
0 42 39 35 44 -2 2 -16 -10 -32 -26z"/>
<path d="M2800 775 c-80 -80 -141 -145 -136 -145 4 0 21 11 38 25 16 14 27 25
24 25 -2 0 7 13 22 28 15 15 32 26 37 23 6 -2 7 -1 4 3 -6 6 72 94 78 89 2 -2
21 18 44 42 23 25 40 47 37 50 -2 2 -69 -61 -148 -140z"/>
<path d="M562 757 c-84 -84 -158 -157 -165 -164 -221 -220 -322 -324 -339
-348 -11 -16 134 124 323 312 188 188 341 345 338 347 -3 3 -73 -63 -157 -147z"/>
<path d="M383 815 c-23 -25 -39 -45 -35 -45 9 0 92 77 92 85 0 14 -19 1 -57
-40z"/>
<path d="M2723 814 c-24 -24 -43 -48 -43 -54 0 -5 -4 -9 -9 -7 -11 3 -61 -50
-61 -65 0 -16 119 104 120 120 0 7 4 11 9 8 11 -7 34 20 29 33 -1 5 -22 -11
-45 -35z"/>
<path d="M2326 768 c-43 -43 -76 -81 -72 -85 3 -3 6 -1 6 6 0 7 3 11 8 9 4 -2
21 11 39 29 17 18 30 33 28 33 -3 0 15 18 38 39 23 22 40 41 37 43 -3 2 -41
-31 -84 -74z"/>
<path d="M645 729 c-60 -59 -106 -111 -102 -115 3 -4 9 1 13 10 3 9 11 13 17
9 6 -3 7 -1 3 5 -4 7 -1 12 9 12 9 0 13 5 10 11 -4 6 2 13 14 16 11 3 18 9 15
14 -3 5 -1 9 4 9 13 0 71 58 64 64 -3 3 1 6 8 6 16 0 72 57 62 64 -4 2 -56
-45 -117 -105z"/>
<path d="M2285 610 c-121 -121 -216 -220 -211 -220 4 0 107 99 229 220 122
121 217 220 212 220 -6 0 -109 -99 -230 -220z"/>
<path d="M2580 435 c-211 -211 -382 -387 -379 -389 2 -3 66 57 142 133 75 76
140 135 144 132 3 -3 3 0 -1 6 -4 7 -3 13 3 13 5 0 16 6 23 14 7 8 110 113
229 233 193 195 238 243 227 243 -2 0 -176 -173 -388 -385z"/>
<path d="M450 415 c-206 -206 -369 -375 -363 -375 6 0 24 15 41 34 17 19 34
32 38 28 4 -4 4 -1 0 6 -4 6 -3 12 2 12 10 0 9 -1 205 198 86 88 157 158 157
157 0 -2 23 20 50 48 28 28 50 55 50 61 0 5 3 7 6 3 3 -3 18 8 32 25 15 16 58
60 97 98 38 38 67 71 64 74 -3 3 -173 -163 -379 -369z"/>
<path d="M2172 725 c-29 -30 -52 -53 -52 -50 0 4 -27 -23 -66 -68 -6 -6 -43
-42 -82 -79 -39 -38 -70 -68 -69 -68 2 0 -21 -25 -49 -55 -29 -30 -57 -55 -62
-55 -6 0 -12 -5 -14 -11 -2 -5 -68 -75 -148 -155 -79 -79 -140 -144 -135 -144
6 0 177 167 380 370 203 204 365 370 359 370 -6 0 -34 -25 -62 -55z"/>
<path d="M188 622 c-77 -78 -139 -145 -135 -148 7 -7 47 32 47 46 0 6 4 10 9
10 11 0 61 47 61 58 0 5 11 18 25 28 44 33 146 136 141 142 -4 3 -70 -58 -148
-136z"/>
<path d="M540 384 c-190 -191 -336 -342 -325 -336 27 14 693 682 680 682 -6 0
-165 -156 -355 -346z"/>
<path d="M2573 666 c-13 -13 -23 -29 -23 -35 0 -6 -5 -11 -11 -11 -14 0 -229
-215 -229 -229 0 -6 -5 -11 -11 -11 -14 0 -89 -76 -89 -90 0 -6 -5 -10 -10
-10 -13 0 -242 -231 -236 -237 8 -8 216 199 216 214 0 7 5 13 11 13 15 0 403
389 405 406 3 18 3 18 -23 -10z"/>
<path d="M2863 598 c-50 -51 -102 -102 -115 -114 -12 -11 -35 -34 -49 -50 -14
-16 -77 -80 -140 -141 -197 -195 -253 -253 -244 -253 5 0 148 138 318 308 268
267 339 342 324 342 -2 0 -44 -42 -94 -92z"/>
<path d="M714 448 c-129 -128 -234 -237 -234 -241 0 -5 7 -1 16 7 8 9 19 16
23 16 4 0 13 12 19 26 7 14 15 23 20 21 4 -2 27 19 52 47 25 29 61 65 82 82
20 17 55 52 77 78 23 26 41 45 41 42 0 -5 117 111 139 137 7 9 10 17 6 17 -4
0 -113 -105 -241 -232z"/>
<path d="M2206 644 c-5 -14 -4 -15 9 -4 17 14 19 20 6 20 -5 0 -12 -7 -15 -16z"/>
<path d="M1945 620 c-10 -11 -14 -20 -8 -20 5 0 18 9 28 20 10 11 14 20 8 20
-5 0 -18 -9 -28 -20z"/>
<path d="M2168 610 c-26 -24 -22 -35 4 -10 12 11 20 22 17 24 -2 2 -12 -4 -21
-14z"/>
<path d="M2360 335 c-157 -157 -280 -285 -275 -285 6 0 39 30 75 67 36 37 68
67 73 65 4 -1 7 2 7 8 0 5 39 47 86 92 47 46 91 89 97 96 7 8 63 65 125 128
62 63 109 114 105 114 -4 0 -136 -128 -293 -285z"/>
<path d="M510 595 c-14 -16 -3 -20 19 -6 8 5 9 11 3 15 -5 3 -15 -1 -22 -9z"/>
<path d="M956 569 c-22 -23 -32 -39 -24 -39 8 0 21 11 28 25 7 13 16 22 20 20
7 -5 24 25 18 31 -2 1 -20 -15 -42 -37z"/>
<path d="M820 314 c-157 -158 -274 -279 -260 -270 33 21 566 556 555 556 -5 0
-137 -129 -295 -286z"/>
<path d="M1870 545 c-24 -24 -42 -47 -39 -49 2 -3 26 18 52 45 26 27 44 49 39
49 -4 0 -28 -20 -52 -45z"/>
<path d="M353 438 c-70 -70 -124 -128 -120 -128 4 0 27 20 51 45 23 25 46 42
51 38 4 -5 5 -2 1 5 -4 7 -1 12 9 12 8 0 23 13 34 30 10 16 21 27 26 22 5 -4
5 -1 1 6 -4 7 -1 12 9 12 9 0 13 5 10 10 -3 6 3 14 14 18 11 4 19 12 19 17 0
6 9 15 21 21 29 15 34 21 17 21 -8 0 -72 -58 -143 -129z"/>
<path d="M2682 304 c-145 -145 -259 -264 -254 -264 10 0 196 184 212 210 5 8
10 12 10 8 0 -8 50 37 50 45 0 3 24 28 53 56 135 128 198 193 195 201 -2 5
-121 -110 -266 -256z"/>
<path d="M1132 508 c-28 -29 -60 -63 -70 -75 -11 -13 -22 -20 -26 -16 -3 3 -6
1 -6 -6 0 -7 -28 -39 -62 -72 -70 -67 -221 -216 -271 -268 -20 -20 -24 -29
-12 -23 27 14 523 512 510 512 -6 0 -34 -24 -63 -52z"/>
<path d="M2103 543 c-25 -17 -30 -33 -11 -33 6 0 9 3 5 6 -3 4 4 15 16 25 27
22 20 24 -10 2z"/>
<path d="M1500 295 c-134 -134 -241 -247 -238 -250 5 -5 35 21 70 61 9 10 23
25 30 31 55 51 138 138 138 146 0 4 5 7 10 7 12 0 83 70 106 105 9 14 19 24
21 22 2 -3 21 12 41 32 60 59 86 91 76 91 -5 0 -119 -110 -254 -245z"/>
<path d="M1260 520 c0 -5 5 -10 11 -10 5 0 7 5 4 10 -3 6 -8 10 -11 10 -2 0
-4 -4 -4 -10z"/>
<path d="M701 316 c-121 -122 -201 -210 -198 -218 4 -10 6 -9 6 2 1 8 19 28
41 44 22 16 42 38 45 47 4 10 15 21 26 24 10 4 26 18 34 33 8 15 14 24 15 20
0 -10 130 123 130 134 0 5 6 6 13 2 6 -4 9 -4 6 0 -8 8 37 56 52 56 6 0 8 4 5
8 -3 5 6 15 19 22 24 13 34 30 18 30 -5 0 -100 -92 -212 -204z"/>
<path d="M1255 278 c-132 -132 -231 -236 -220 -230 26 14 482 472 470 472 -6
0 -118 -109 -250 -242z"/>
<path d="M1202 467 c-42 -43 -50 -57 -32 -57 6 0 9 3 8 8 -4 11 35 52 44 46 5
-3 7 0 6 7 -2 7 3 13 10 14 12 0 18 13 10 21 -2 2 -23 -16 -46 -39z"/>
<path d="M1225 370 c-77 -77 -135 -140 -130 -140 5 0 58 49 116 109 59 60 109
108 111 107 1 -2 16 12 31 31 16 18 25 33 20 33 -4 0 -71 -63 -148 -140z"/>
<path d="M1542 457 c-29 -29 -52 -57 -52 -64 0 -7 27 15 60 49 33 33 60 62 60
64 0 12 -21 -3 -68 -49z"/>
<path d="M2046 489 c-11 -11 -17 -21 -14 -24 2 -3 13 4 23 15 24 26 16 33 -9
9z"/>
<path d="M1765 440 c-27 -28 -45 -50 -41 -50 12 0 100 89 94 95 -2 2 -26 -18
-53 -45z"/>
<path d="M2908 411 c-36 -35 -44 -48 -29 -44 11 3 21 9 21 13 0 4 17 24 37 44
21 20 34 36 29 36 -4 0 -31 -22 -58 -49z"/>
<path d="M1953 394 c-51 -52 -57 -68 -10 -25 17 17 35 31 38 31 4 0 9 9 12 20
3 11 4 20 4 19 -1 0 -21 -20 -44 -45z"/>
<path d="M1067 332 c-42 -42 -77 -81 -77 -84 0 -16 32 7 41 28 5 13 14 23 21
22 7 -2 13 4 13 12 1 8 6 14 13 13 7 -2 12 4 12 13 0 8 5 12 10 9 6 -3 10 1
10 10 0 10 5 13 12 9 6 -4 8 -3 5 3 -8 13 17 36 28 25 5 -4 5 -1 1 6 -4 6 -8
12 -9 12 -2 0 -37 -35 -80 -78z"/>
<path d="M1306 220 c-93 -94 -166 -173 -163 -176 7 -7 57 44 57 58 0 5 4 7 10
3 5 -3 16 7 24 22 8 15 15 25 16 21 0 -5 8 0 18 10 11 9 17 20 16 23 -2 3 8
12 21 19 14 7 25 19 25 27 0 7 4 13 10 13 12 0 140 128 140 141 0 5 -1 9 -2 9
-2 0 -79 -77 -172 -170z"/>
<path d="M1675 350 c-40 -42 -28 -45 15 -4 19 19 30 34 24 34 -5 0 -23 -13
-39 -30z"/>
<path d="M1925 250 c-71 -72 -126 -130 -121 -130 4 0 64 56 133 124 68 69 127
124 130 124 2 0 7 3 11 6 3 3 -1 6 -9 6 -8 0 -73 -58 -144 -130z"/>
<path d="M2816 320 c-16 -17 -25 -30 -20 -30 12 0 25 10 48 38 28 33 6 26 -28
-8z"/>
<path d="M2815 199 c-82 -82 -145 -149 -139 -149 12 0 299 288 293 294 -2 3
-72 -63 -154 -145z"/>
<path d="M1885 326 c-23 -25 -26 -40 -4 -19 12 12 21 24 18 27 -2 2 -9 -1 -14
-8z"/>
<path d="M1591 265 c-24 -25 -39 -45 -34 -45 9 0 44 35 72 73 23 30 7 18 -38
-28z"/>
<path d="M172 257 c-45 -46 -54 -65 -23 -45 11 7 17 16 15 20 -3 4 2 8 11 8 9
0 14 4 11 9 -3 5 9 18 27 30 18 11 25 21 17 21 -9 0 -35 -19 -58 -43z"/>
<path d="M1840 280 c0 -5 5 -10 11 -10 5 0 7 5 4 10 -3 6 -8 10 -11 10 -2 0
-4 -4 -4 -10z"/>
<path d="M2746 250 c-38 -39 -24 -39 21 0 18 17 28 30 21 30 -7 0 -26 -14 -42
-30z"/>
<path d="M1772 215 c-40 -39 -50 -55 -40 -60 7 -5 10 -5 6 0 -4 4 18 27 48 52
30 24 52 49 49 54 -8 11 -1 16 -63 -46z"/>
<path d="M947 212 c-29 -30 -33 -42 -17 -42 6 0 9 6 8 13 -2 6 3 11 10 9 8 -1
11 1 9 5 -7 11 19 33 29 25 4 -4 4 -1 0 6 -9 16 -8 16 -39 -16z"/>
<path d="M984 129 c-49 -50 -80 -86 -68 -81 11 6 41 34 67 62 25 28 48 49 51
48 6 -4 49 52 44 57 -2 3 -44 -36 -94 -86z"/>
<path d="M2865 133 c-47 -47 -83 -89 -80 -92 5 -5 175 164 175 174 0 12 -15
-1 -95 -82z"/>
<path d="M1525 200 c-3 -5 -2 -10 4 -10 5 0 13 5 16 10 3 6 2 10 -4 10 -5 0
-13 -4 -16 -10z"/>
<path d="M2660 165 c-25 -25 -39 -45 -32 -45 6 0 12 5 12 11 0 5 3 9 8 7 4 -2
24 13 44 34 21 21 32 38 25 38 -7 -1 -32 -21 -57 -45z"/>
<path d="M76 160 c-36 -40 -51 -75 -21 -50 8 7 15 18 15 24 0 6 10 16 22 21
12 6 23 18 24 28 3 24 1 22 -40 -23z"/>
<path d="M386 120 c-44 -44 -75 -80 -69 -80 5 0 21 12 35 28 14 15 46 47 72
71 38 35 57 63 44 61 -2 -1 -39 -37 -82 -80z"/>
<path d="M1495 170 c-3 -5 -1 -10 4 -10 6 0 11 5 11 10 0 6 -2 10 -4 10 -3 0
-8 -4 -11 -10z"/>
<path d="M846 110 c-33 -33 -56 -63 -54 -66 3 -3 15 7 26 21 11 14 23 26 26
26 3 -1 6 2 7 7 1 13 21 32 29 27 4 -3 10 5 13 16 4 13 10 18 18 13 8 -4 10
-3 5 4 -4 7 -8 12 -10 12 -1 0 -28 -27 -60 -60z"/>
<path d="M1425 100 c-27 -28 -45 -50 -40 -50 13 0 100 88 94 95 -3 2 -27 -18
-54 -45z"/>
<path d="M1696 134 c-5 -14 -4 -15 9 -4 17 14 19 20 6 20 -5 0 -12 -7 -15 -16z"/>
<path d="M1775 100 c-3 -5 -2 -10 4 -10 5 0 13 5 16 10 3 6 2 10 -4 10 -5 0
-13 -4 -16 -10z"/>
<path d="M2569 74 c-20 -22 -26 -32 -14 -26 25 13 72 62 59 62 -6 0 -26 -16
-45 -36z"/>
<path d="M455 68 l-30 -30 27 12 c23 11 44 37 36 46 -2 1 -16 -11 -33 -28z"/>
<path d="M1631 75 c-14 -14 -22 -27 -19 -30 7 -7 48 34 48 47 0 11 -2 10 -29
-17z"/>
<path d="M2915 70 c-16 -16 -26 -32 -24 -35 3 -2 21 11 39 30 19 19 29 35 24
35 -6 0 -23 -13 -39 -30z"/>
<path d="M1735 60 c-10 -11 -14 -20 -8 -20 5 0 18 9 28 20 10 11 14 20 8 20
-5 0 -18 -9 -28 -20z"/>
</g>
</svg>
